<mxfile host="app.diagrams.net" modified="2023-09-19T18:13:33.709Z" agent="Mozilla/5.0 (X11; Linux x86_64; rv:109.0) Gecko/20100101 Firefox/117.0" etag="3V-YuBMYsmqnfeGSFU0h" version="21.7.5" type="github">
  <diagram name="Page-1" id="y3E8dajn6D63R-1hlr5p">
    <mxGraphModel dx="1687" dy="793" grid="1" gridSize="10" guides="1" tooltips="1" connect="1" arrows="1" fold="1" page="1" pageScale="1" pageWidth="3300" pageHeight="4681" math="0" shadow="0">
      <root>
        <mxCell id="0" />
        <mxCell id="1" parent="0" />
        <mxCell id="gMcA3CCZ3mcpVV-iKXvu-501" value="" style="ellipse;whiteSpace=wrap;html=1;" vertex="1" parent="1">
          <mxGeometry x="2980" y="900" width="60" height="110" as="geometry" />
        </mxCell>
        <mxCell id="gMcA3CCZ3mcpVV-iKXvu-499" value="" style="ellipse;whiteSpace=wrap;html=1;" vertex="1" parent="1">
          <mxGeometry x="2290" y="840" width="120" height="39" as="geometry" />
        </mxCell>
        <mxCell id="gMcA3CCZ3mcpVV-iKXvu-497" value="" style="ellipse;whiteSpace=wrap;html=1;" vertex="1" parent="1">
          <mxGeometry x="2720" y="797" width="120" height="48" as="geometry" />
        </mxCell>
        <mxCell id="gMcA3CCZ3mcpVV-iKXvu-495" value="" style="ellipse;whiteSpace=wrap;html=1;" vertex="1" parent="1">
          <mxGeometry x="2830" y="214" width="80" height="48" as="geometry" />
        </mxCell>
        <mxCell id="gMcA3CCZ3mcpVV-iKXvu-493" value="" style="ellipse;whiteSpace=wrap;html=1;" vertex="1" parent="1">
          <mxGeometry x="3010" y="450" width="120" height="46" as="geometry" />
        </mxCell>
        <mxCell id="gMcA3CCZ3mcpVV-iKXvu-485" value="" style="ellipse;whiteSpace=wrap;html=1;rotation=-90;" vertex="1" parent="1">
          <mxGeometry x="2825" y="541" width="120" height="48" as="geometry" />
        </mxCell>
        <mxCell id="gMcA3CCZ3mcpVV-iKXvu-487" value="" style="ellipse;whiteSpace=wrap;html=1;" vertex="1" parent="1">
          <mxGeometry x="2680" y="444" width="120" height="48" as="geometry" />
        </mxCell>
        <mxCell id="gMcA3CCZ3mcpVV-iKXvu-488" value="" style="endArrow=none;html=1;rounded=0;" edge="1" parent="1">
          <mxGeometry width="50" height="50" relative="1" as="geometry">
            <mxPoint x="2700" y="464" as="sourcePoint" />
            <mxPoint x="2780" y="464" as="targetPoint" />
          </mxGeometry>
        </mxCell>
        <mxCell id="gMcA3CCZ3mcpVV-iKXvu-480" value="" style="ellipse;whiteSpace=wrap;html=1;" vertex="1" parent="1">
          <mxGeometry x="2310" y="589" width="120" height="48" as="geometry" />
        </mxCell>
        <mxCell id="gMcA3CCZ3mcpVV-iKXvu-481" value="" style="endArrow=none;html=1;rounded=0;" edge="1" parent="1">
          <mxGeometry width="50" height="50" relative="1" as="geometry">
            <mxPoint x="2330" y="609" as="sourcePoint" />
            <mxPoint x="2410" y="609" as="targetPoint" />
          </mxGeometry>
        </mxCell>
        <mxCell id="gMcA3CCZ3mcpVV-iKXvu-479" value="" style="group" vertex="1" connectable="0" parent="1">
          <mxGeometry x="2170" y="410" width="120" height="58" as="geometry" />
        </mxCell>
        <mxCell id="gMcA3CCZ3mcpVV-iKXvu-478" value="" style="endArrow=none;html=1;rounded=0;" edge="1" parent="gMcA3CCZ3mcpVV-iKXvu-479">
          <mxGeometry width="50" height="50" relative="1" as="geometry">
            <mxPoint x="20" y="26.583333333333332" as="sourcePoint" />
            <mxPoint x="100" y="26.583333333333332" as="targetPoint" />
          </mxGeometry>
        </mxCell>
        <mxCell id="gMcA3CCZ3mcpVV-iKXvu-477" value="" style="ellipse;whiteSpace=wrap;html=1;" vertex="1" parent="gMcA3CCZ3mcpVV-iKXvu-479">
          <mxGeometry width="120" height="58" as="geometry" />
        </mxCell>
        <mxCell id="gMcA3CCZ3mcpVV-iKXvu-474" value="" style="ellipse;whiteSpace=wrap;html=1;" vertex="1" parent="1">
          <mxGeometry x="2510" y="300" width="120" height="48" as="geometry" />
        </mxCell>
        <mxCell id="gMcA3CCZ3mcpVV-iKXvu-1" value="Programme" style="shape=table;startSize=30;container=1;collapsible=1;childLayout=tableLayout;fixedRows=1;rowLines=0;fontStyle=1;align=center;resizeLast=1;" vertex="1" parent="1">
          <mxGeometry x="1238.57" y="190" width="250" height="90" as="geometry" />
        </mxCell>
        <mxCell id="gMcA3CCZ3mcpVV-iKXvu-2" value="" style="shape=partialRectangle;collapsible=0;dropTarget=0;pointerEvents=0;fillColor=none;points=[[0,0.5],[1,0.5]];portConstraint=eastwest;top=0;left=0;right=0;bottom=1;" vertex="1" parent="gMcA3CCZ3mcpVV-iKXvu-1">
          <mxGeometry y="30" width="250" height="30" as="geometry" />
        </mxCell>
        <mxCell id="gMcA3CCZ3mcpVV-iKXvu-3" value="PK" style="shape=partialRectangle;overflow=hidden;connectable=0;fillColor=none;top=0;left=0;bottom=0;right=0;fontStyle=1;" vertex="1" parent="gMcA3CCZ3mcpVV-iKXvu-2">
          <mxGeometry width="30" height="30" as="geometry">
            <mxRectangle width="30" height="30" as="alternateBounds" />
          </mxGeometry>
        </mxCell>
        <mxCell id="gMcA3CCZ3mcpVV-iKXvu-4" value="idp" style="shape=partialRectangle;overflow=hidden;connectable=0;fillColor=none;top=0;left=0;bottom=0;right=0;align=left;spacingLeft=6;fontStyle=5;" vertex="1" parent="gMcA3CCZ3mcpVV-iKXvu-2">
          <mxGeometry x="30" width="220" height="30" as="geometry">
            <mxRectangle width="220" height="30" as="alternateBounds" />
          </mxGeometry>
        </mxCell>
        <mxCell id="gMcA3CCZ3mcpVV-iKXvu-5" value="" style="shape=partialRectangle;collapsible=0;dropTarget=0;pointerEvents=0;fillColor=none;points=[[0,0.5],[1,0.5]];portConstraint=eastwest;top=0;left=0;right=0;bottom=0;" vertex="1" parent="gMcA3CCZ3mcpVV-iKXvu-1">
          <mxGeometry y="60" width="250" height="30" as="geometry" />
        </mxCell>
        <mxCell id="gMcA3CCZ3mcpVV-iKXvu-6" value="FK1" style="shape=partialRectangle;overflow=hidden;connectable=0;fillColor=none;top=0;left=0;bottom=0;right=0;" vertex="1" parent="gMcA3CCZ3mcpVV-iKXvu-5">
          <mxGeometry width="30" height="30" as="geometry">
            <mxRectangle width="30" height="30" as="alternateBounds" />
          </mxGeometry>
        </mxCell>
        <mxCell id="gMcA3CCZ3mcpVV-iKXvu-7" value="nomp" style="shape=partialRectangle;overflow=hidden;connectable=0;fillColor=none;top=0;left=0;bottom=0;right=0;align=left;spacingLeft=6;" vertex="1" parent="gMcA3CCZ3mcpVV-iKXvu-5">
          <mxGeometry x="30" width="220" height="30" as="geometry">
            <mxRectangle width="220" height="30" as="alternateBounds" />
          </mxGeometry>
        </mxCell>
        <mxCell id="gMcA3CCZ3mcpVV-iKXvu-8" style="edgeStyle=orthogonalEdgeStyle;rounded=0;orthogonalLoop=1;jettySize=auto;html=1;entryX=0.008;entryY=0.733;entryDx=0;entryDy=0;entryPerimeter=0;" edge="1" parent="1" source="gMcA3CCZ3mcpVV-iKXvu-12" target="gMcA3CCZ3mcpVV-iKXvu-46">
          <mxGeometry relative="1" as="geometry" />
        </mxCell>
        <mxCell id="gMcA3CCZ3mcpVV-iKXvu-9" value="dispenser" style="edgeLabel;html=1;align=center;verticalAlign=middle;resizable=0;points=[];" vertex="1" connectable="0" parent="gMcA3CCZ3mcpVV-iKXvu-8">
          <mxGeometry x="-0.1046" y="1" relative="1" as="geometry">
            <mxPoint as="offset" />
          </mxGeometry>
        </mxCell>
        <mxCell id="gMcA3CCZ3mcpVV-iKXvu-10" style="edgeStyle=orthogonalEdgeStyle;rounded=0;orthogonalLoop=1;jettySize=auto;html=1;entryX=0.477;entryY=1.071;entryDx=0;entryDy=0;entryPerimeter=0;" edge="1" parent="1" source="gMcA3CCZ3mcpVV-iKXvu-12" target="gMcA3CCZ3mcpVV-iKXvu-99">
          <mxGeometry relative="1" as="geometry">
            <Array as="points">
              <mxPoint x="540" y="825" />
              <mxPoint x="540" y="810" />
              <mxPoint x="539" y="810" />
            </Array>
          </mxGeometry>
        </mxCell>
        <mxCell id="gMcA3CCZ3mcpVV-iKXvu-11" value="superviser" style="edgeLabel;html=1;align=center;verticalAlign=middle;resizable=0;points=[];" vertex="1" connectable="0" parent="gMcA3CCZ3mcpVV-iKXvu-10">
          <mxGeometry x="-0.1716" y="-1" relative="1" as="geometry">
            <mxPoint as="offset" />
          </mxGeometry>
        </mxCell>
        <mxCell id="gMcA3CCZ3mcpVV-iKXvu-12" value="Membrecorpsprofessoral" style="shape=table;startSize=30;container=1;collapsible=1;childLayout=tableLayout;fixedRows=1;rowLines=0;fontStyle=1;align=center;resizeLast=1;" vertex="1" parent="1">
          <mxGeometry x="750" y="750" width="240" height="150" as="geometry" />
        </mxCell>
        <mxCell id="gMcA3CCZ3mcpVV-iKXvu-13" value="" style="shape=partialRectangle;collapsible=0;dropTarget=0;pointerEvents=0;fillColor=none;points=[[0,0.5],[1,0.5]];portConstraint=eastwest;top=0;left=0;right=0;bottom=1;" vertex="1" parent="gMcA3CCZ3mcpVV-iKXvu-12">
          <mxGeometry y="30" width="240" height="30" as="geometry" />
        </mxCell>
        <mxCell id="gMcA3CCZ3mcpVV-iKXvu-14" value="PK" style="shape=partialRectangle;overflow=hidden;connectable=0;fillColor=none;top=0;left=0;bottom=0;right=0;fontStyle=1;" vertex="1" parent="gMcA3CCZ3mcpVV-iKXvu-13">
          <mxGeometry width="30" height="30" as="geometry">
            <mxRectangle width="30" height="30" as="alternateBounds" />
          </mxGeometry>
        </mxCell>
        <mxCell id="gMcA3CCZ3mcpVV-iKXvu-15" value="idm" style="shape=partialRectangle;overflow=hidden;connectable=0;fillColor=none;top=0;left=0;bottom=0;right=0;align=left;spacingLeft=6;fontStyle=5;" vertex="1" parent="gMcA3CCZ3mcpVV-iKXvu-13">
          <mxGeometry x="30" width="210" height="30" as="geometry">
            <mxRectangle width="210" height="30" as="alternateBounds" />
          </mxGeometry>
        </mxCell>
        <mxCell id="gMcA3CCZ3mcpVV-iKXvu-16" value="" style="shape=partialRectangle;collapsible=0;dropTarget=0;pointerEvents=0;fillColor=none;points=[[0,0.5],[1,0.5]];portConstraint=eastwest;top=0;left=0;right=0;bottom=0;" vertex="1" parent="gMcA3CCZ3mcpVV-iKXvu-12">
          <mxGeometry y="60" width="240" height="30" as="geometry" />
        </mxCell>
        <mxCell id="gMcA3CCZ3mcpVV-iKXvu-17" value="FK1" style="shape=partialRectangle;overflow=hidden;connectable=0;fillColor=none;top=0;left=0;bottom=0;right=0;" vertex="1" parent="gMcA3CCZ3mcpVV-iKXvu-16">
          <mxGeometry width="30" height="30" as="geometry">
            <mxRectangle width="30" height="30" as="alternateBounds" />
          </mxGeometry>
        </mxCell>
        <mxCell id="gMcA3CCZ3mcpVV-iKXvu-18" value="nomm" style="shape=partialRectangle;overflow=hidden;connectable=0;fillColor=none;top=0;left=0;bottom=0;right=0;align=left;spacingLeft=6;" vertex="1" parent="gMcA3CCZ3mcpVV-iKXvu-16">
          <mxGeometry x="30" width="210" height="30" as="geometry">
            <mxRectangle width="210" height="30" as="alternateBounds" />
          </mxGeometry>
        </mxCell>
        <mxCell id="gMcA3CCZ3mcpVV-iKXvu-19" value="" style="shape=partialRectangle;collapsible=0;dropTarget=0;pointerEvents=0;fillColor=none;points=[[0,0.5],[1,0.5]];portConstraint=eastwest;top=0;left=0;right=0;bottom=0;" vertex="1" parent="gMcA3CCZ3mcpVV-iKXvu-12">
          <mxGeometry y="90" width="240" height="30" as="geometry" />
        </mxCell>
        <mxCell id="gMcA3CCZ3mcpVV-iKXvu-20" value="" style="shape=partialRectangle;overflow=hidden;connectable=0;fillColor=none;top=0;left=0;bottom=0;right=0;" vertex="1" parent="gMcA3CCZ3mcpVV-iKXvu-19">
          <mxGeometry width="30" height="30" as="geometry">
            <mxRectangle width="30" height="30" as="alternateBounds" />
          </mxGeometry>
        </mxCell>
        <mxCell id="gMcA3CCZ3mcpVV-iKXvu-21" value="courrielm" style="shape=partialRectangle;overflow=hidden;connectable=0;fillColor=none;top=0;left=0;bottom=0;right=0;align=left;spacingLeft=6;" vertex="1" parent="gMcA3CCZ3mcpVV-iKXvu-19">
          <mxGeometry x="30" width="210" height="30" as="geometry">
            <mxRectangle width="210" height="30" as="alternateBounds" />
          </mxGeometry>
        </mxCell>
        <mxCell id="gMcA3CCZ3mcpVV-iKXvu-22" style="shape=partialRectangle;collapsible=0;dropTarget=0;pointerEvents=0;fillColor=none;points=[[0,0.5],[1,0.5]];portConstraint=eastwest;top=0;left=0;right=0;bottom=0;" vertex="1" parent="gMcA3CCZ3mcpVV-iKXvu-12">
          <mxGeometry y="120" width="240" height="30" as="geometry" />
        </mxCell>
        <mxCell id="gMcA3CCZ3mcpVV-iKXvu-23" style="shape=partialRectangle;overflow=hidden;connectable=0;fillColor=none;top=0;left=0;bottom=0;right=0;" vertex="1" parent="gMcA3CCZ3mcpVV-iKXvu-22">
          <mxGeometry width="30" height="30" as="geometry">
            <mxRectangle width="30" height="30" as="alternateBounds" />
          </mxGeometry>
        </mxCell>
        <mxCell id="gMcA3CCZ3mcpVV-iKXvu-24" value="specialisationm" style="shape=partialRectangle;overflow=hidden;connectable=0;fillColor=none;top=0;left=0;bottom=0;right=0;align=left;spacingLeft=6;" vertex="1" parent="gMcA3CCZ3mcpVV-iKXvu-22">
          <mxGeometry x="30" width="210" height="30" as="geometry">
            <mxRectangle width="210" height="30" as="alternateBounds" />
          </mxGeometry>
        </mxCell>
        <mxCell id="gMcA3CCZ3mcpVV-iKXvu-25" style="edgeStyle=orthogonalEdgeStyle;rounded=0;orthogonalLoop=1;jettySize=auto;html=1;entryX=0;entryY=0.5;entryDx=0;entryDy=0;" edge="1" parent="1" source="gMcA3CCZ3mcpVV-iKXvu-27" target="gMcA3CCZ3mcpVV-iKXvu-2">
          <mxGeometry relative="1" as="geometry" />
        </mxCell>
        <mxCell id="gMcA3CCZ3mcpVV-iKXvu-26" value="proposer" style="edgeLabel;html=1;align=center;verticalAlign=middle;resizable=0;points=[];" vertex="1" connectable="0" parent="gMcA3CCZ3mcpVV-iKXvu-25">
          <mxGeometry x="0.2552" y="-2" relative="1" as="geometry">
            <mxPoint x="-17" y="-2" as="offset" />
          </mxGeometry>
        </mxCell>
        <mxCell id="gMcA3CCZ3mcpVV-iKXvu-27" value="Faculte" style="shape=table;startSize=30;container=1;collapsible=1;childLayout=tableLayout;fixedRows=1;rowLines=0;fontStyle=1;align=center;resizeLast=1;" vertex="1" parent="1">
          <mxGeometry x="818.5699999999999" y="190" width="250" height="90" as="geometry" />
        </mxCell>
        <mxCell id="gMcA3CCZ3mcpVV-iKXvu-28" value="" style="shape=partialRectangle;collapsible=0;dropTarget=0;pointerEvents=0;fillColor=none;points=[[0,0.5],[1,0.5]];portConstraint=eastwest;top=0;left=0;right=0;bottom=1;" vertex="1" parent="gMcA3CCZ3mcpVV-iKXvu-27">
          <mxGeometry y="30" width="250" height="30" as="geometry" />
        </mxCell>
        <mxCell id="gMcA3CCZ3mcpVV-iKXvu-29" value="PK" style="shape=partialRectangle;overflow=hidden;connectable=0;fillColor=none;top=0;left=0;bottom=0;right=0;fontStyle=1;" vertex="1" parent="gMcA3CCZ3mcpVV-iKXvu-28">
          <mxGeometry width="30" height="30" as="geometry">
            <mxRectangle width="30" height="30" as="alternateBounds" />
          </mxGeometry>
        </mxCell>
        <mxCell id="gMcA3CCZ3mcpVV-iKXvu-30" value="identifiantf" style="shape=partialRectangle;overflow=hidden;connectable=0;fillColor=none;top=0;left=0;bottom=0;right=0;align=left;spacingLeft=6;fontStyle=5;" vertex="1" parent="gMcA3CCZ3mcpVV-iKXvu-28">
          <mxGeometry x="30" width="220" height="30" as="geometry">
            <mxRectangle width="220" height="30" as="alternateBounds" />
          </mxGeometry>
        </mxCell>
        <mxCell id="gMcA3CCZ3mcpVV-iKXvu-31" value="" style="shape=partialRectangle;collapsible=0;dropTarget=0;pointerEvents=0;fillColor=none;points=[[0,0.5],[1,0.5]];portConstraint=eastwest;top=0;left=0;right=0;bottom=0;" vertex="1" parent="gMcA3CCZ3mcpVV-iKXvu-27">
          <mxGeometry y="60" width="250" height="30" as="geometry" />
        </mxCell>
        <mxCell id="gMcA3CCZ3mcpVV-iKXvu-32" value="" style="shape=partialRectangle;overflow=hidden;connectable=0;fillColor=none;top=0;left=0;bottom=0;right=0;" vertex="1" parent="gMcA3CCZ3mcpVV-iKXvu-31">
          <mxGeometry width="30" height="30" as="geometry">
            <mxRectangle width="30" height="30" as="alternateBounds" />
          </mxGeometry>
        </mxCell>
        <mxCell id="gMcA3CCZ3mcpVV-iKXvu-33" value="nomf" style="shape=partialRectangle;overflow=hidden;connectable=0;fillColor=none;top=0;left=0;bottom=0;right=0;align=left;spacingLeft=6;" vertex="1" parent="gMcA3CCZ3mcpVV-iKXvu-31">
          <mxGeometry x="30" width="220" height="30" as="geometry">
            <mxRectangle width="220" height="30" as="alternateBounds" />
          </mxGeometry>
        </mxCell>
        <mxCell id="gMcA3CCZ3mcpVV-iKXvu-34" style="edgeStyle=orthogonalEdgeStyle;rounded=0;orthogonalLoop=1;jettySize=auto;html=1;entryX=0.45;entryY=1.053;entryDx=0;entryDy=0;entryPerimeter=0;exitX=0.843;exitY=-0.007;exitDx=0;exitDy=0;exitPerimeter=0;" edge="1" parent="1" source="gMcA3CCZ3mcpVV-iKXvu-36">
          <mxGeometry relative="1" as="geometry">
            <mxPoint x="1283.964482758621" y="678.41" as="sourcePoint" />
            <mxPoint x="1359.9999999999998" y="280" as="targetPoint" />
          </mxGeometry>
        </mxCell>
        <mxCell id="gMcA3CCZ3mcpVV-iKXvu-35" value="&lt;div&gt;offrir pour&lt;br&gt;&lt;/div&gt;&lt;div&gt;&lt;br&gt;&lt;/div&gt;&lt;div&gt;semestre&lt;br&gt;&lt;/div&gt;" style="edgeLabel;html=1;align=center;verticalAlign=middle;resizable=0;points=[];" vertex="1" connectable="0" parent="gMcA3CCZ3mcpVV-iKXvu-34">
          <mxGeometry x="0.0558" relative="1" as="geometry">
            <mxPoint as="offset" />
          </mxGeometry>
        </mxCell>
        <mxCell id="gMcA3CCZ3mcpVV-iKXvu-36" value="Cours" style="shape=table;startSize=30;container=1;collapsible=1;childLayout=tableLayout;fixedRows=1;rowLines=0;fontStyle=1;align=center;resizeLast=1;" vertex="1" parent="1">
          <mxGeometry x="1150" y="680" width="250" height="160" as="geometry" />
        </mxCell>
        <mxCell id="gMcA3CCZ3mcpVV-iKXvu-37" value="" style="shape=partialRectangle;collapsible=0;dropTarget=0;pointerEvents=0;fillColor=none;points=[[0,0.5],[1,0.5]];portConstraint=eastwest;top=0;left=0;right=0;bottom=1;" vertex="1" parent="gMcA3CCZ3mcpVV-iKXvu-36">
          <mxGeometry y="30" width="250" height="30" as="geometry" />
        </mxCell>
        <mxCell id="gMcA3CCZ3mcpVV-iKXvu-38" value="PK" style="shape=partialRectangle;overflow=hidden;connectable=0;fillColor=none;top=0;left=0;bottom=0;right=0;fontStyle=1;" vertex="1" parent="gMcA3CCZ3mcpVV-iKXvu-37">
          <mxGeometry width="30" height="30" as="geometry">
            <mxRectangle width="30" height="30" as="alternateBounds" />
          </mxGeometry>
        </mxCell>
        <mxCell id="gMcA3CCZ3mcpVV-iKXvu-39" value="siglec" style="shape=partialRectangle;overflow=hidden;connectable=0;fillColor=none;top=0;left=0;bottom=0;right=0;align=left;spacingLeft=6;fontStyle=5;" vertex="1" parent="gMcA3CCZ3mcpVV-iKXvu-37">
          <mxGeometry x="30" width="220" height="30" as="geometry">
            <mxRectangle width="220" height="30" as="alternateBounds" />
          </mxGeometry>
        </mxCell>
        <mxCell id="gMcA3CCZ3mcpVV-iKXvu-40" value="" style="shape=partialRectangle;collapsible=0;dropTarget=0;pointerEvents=0;fillColor=none;points=[[0,0.5],[1,0.5]];portConstraint=eastwest;top=0;left=0;right=0;bottom=0;" vertex="1" parent="gMcA3CCZ3mcpVV-iKXvu-36">
          <mxGeometry y="60" width="250" height="30" as="geometry" />
        </mxCell>
        <mxCell id="gMcA3CCZ3mcpVV-iKXvu-41" value="FK1" style="shape=partialRectangle;overflow=hidden;connectable=0;fillColor=none;top=0;left=0;bottom=0;right=0;" vertex="1" parent="gMcA3CCZ3mcpVV-iKXvu-40">
          <mxGeometry width="30" height="30" as="geometry">
            <mxRectangle width="30" height="30" as="alternateBounds" />
          </mxGeometry>
        </mxCell>
        <mxCell id="gMcA3CCZ3mcpVV-iKXvu-42" value="titrec" style="shape=partialRectangle;overflow=hidden;connectable=0;fillColor=none;top=0;left=0;bottom=0;right=0;align=left;spacingLeft=6;" vertex="1" parent="gMcA3CCZ3mcpVV-iKXvu-40">
          <mxGeometry x="30" width="220" height="30" as="geometry">
            <mxRectangle width="220" height="30" as="alternateBounds" />
          </mxGeometry>
        </mxCell>
        <mxCell id="gMcA3CCZ3mcpVV-iKXvu-43" value="" style="shape=partialRectangle;collapsible=0;dropTarget=0;pointerEvents=0;fillColor=none;points=[[0,0.5],[1,0.5]];portConstraint=eastwest;top=0;left=0;right=0;bottom=0;" vertex="1" parent="gMcA3CCZ3mcpVV-iKXvu-36">
          <mxGeometry y="90" width="250" height="30" as="geometry" />
        </mxCell>
        <mxCell id="gMcA3CCZ3mcpVV-iKXvu-44" value="" style="shape=partialRectangle;overflow=hidden;connectable=0;fillColor=none;top=0;left=0;bottom=0;right=0;" vertex="1" parent="gMcA3CCZ3mcpVV-iKXvu-43">
          <mxGeometry width="30" height="30" as="geometry">
            <mxRectangle width="30" height="30" as="alternateBounds" />
          </mxGeometry>
        </mxCell>
        <mxCell id="gMcA3CCZ3mcpVV-iKXvu-45" value="descriptionc" style="shape=partialRectangle;overflow=hidden;connectable=0;fillColor=none;top=0;left=0;bottom=0;right=0;align=left;spacingLeft=6;" vertex="1" parent="gMcA3CCZ3mcpVV-iKXvu-43">
          <mxGeometry x="30" width="220" height="30" as="geometry">
            <mxRectangle width="220" height="30" as="alternateBounds" />
          </mxGeometry>
        </mxCell>
        <mxCell id="gMcA3CCZ3mcpVV-iKXvu-46" style="shape=partialRectangle;collapsible=0;dropTarget=0;pointerEvents=0;fillColor=none;points=[[0,0.5],[1,0.5]];portConstraint=eastwest;top=0;left=0;right=0;bottom=0;" vertex="1" parent="gMcA3CCZ3mcpVV-iKXvu-36">
          <mxGeometry y="120" width="250" height="30" as="geometry" />
        </mxCell>
        <mxCell id="gMcA3CCZ3mcpVV-iKXvu-47" style="shape=partialRectangle;overflow=hidden;connectable=0;fillColor=none;top=0;left=0;bottom=0;right=0;" vertex="1" parent="gMcA3CCZ3mcpVV-iKXvu-46">
          <mxGeometry width="30" height="30" as="geometry">
            <mxRectangle width="30" height="30" as="alternateBounds" />
          </mxGeometry>
        </mxCell>
        <mxCell id="gMcA3CCZ3mcpVV-iKXvu-48" value="numcredit" style="shape=partialRectangle;overflow=hidden;connectable=0;fillColor=none;top=0;left=0;bottom=0;right=0;align=left;spacingLeft=6;" vertex="1" parent="gMcA3CCZ3mcpVV-iKXvu-46">
          <mxGeometry x="30" width="220" height="30" as="geometry">
            <mxRectangle width="220" height="30" as="alternateBounds" />
          </mxGeometry>
        </mxCell>
        <mxCell id="gMcA3CCZ3mcpVV-iKXvu-49" style="edgeStyle=orthogonalEdgeStyle;rounded=0;orthogonalLoop=1;jettySize=auto;html=1;entryX=0.486;entryY=1;entryDx=0;entryDy=0;entryPerimeter=0;" edge="1" parent="1" source="gMcA3CCZ3mcpVV-iKXvu-59" target="gMcA3CCZ3mcpVV-iKXvu-31">
          <mxGeometry relative="1" as="geometry" />
        </mxCell>
        <mxCell id="gMcA3CCZ3mcpVV-iKXvu-50" value="&lt;div&gt;inscrire&lt;/div&gt;&lt;div&gt;dateinscription&lt;br&gt;&lt;/div&gt;" style="edgeLabel;html=1;align=center;verticalAlign=middle;resizable=0;points=[];" vertex="1" connectable="0" parent="gMcA3CCZ3mcpVV-iKXvu-49">
          <mxGeometry x="0.0264" y="-3" relative="1" as="geometry">
            <mxPoint as="offset" />
          </mxGeometry>
        </mxCell>
        <mxCell id="gMcA3CCZ3mcpVV-iKXvu-51" value="1,n" style="edgeLabel;html=1;align=center;verticalAlign=middle;resizable=0;points=[];" vertex="1" connectable="0" parent="gMcA3CCZ3mcpVV-iKXvu-49">
          <mxGeometry x="-0.8549" y="1" relative="1" as="geometry">
            <mxPoint as="offset" />
          </mxGeometry>
        </mxCell>
        <mxCell id="gMcA3CCZ3mcpVV-iKXvu-52" value="1,1" style="edgeLabel;html=1;align=center;verticalAlign=middle;resizable=0;points=[];" vertex="1" connectable="0" parent="gMcA3CCZ3mcpVV-iKXvu-49">
          <mxGeometry x="0.8502" y="-1" relative="1" as="geometry">
            <mxPoint as="offset" />
          </mxGeometry>
        </mxCell>
        <mxCell id="gMcA3CCZ3mcpVV-iKXvu-53" style="edgeStyle=orthogonalEdgeStyle;rounded=0;orthogonalLoop=1;jettySize=auto;html=1;entryX=0.537;entryY=-0.027;entryDx=0;entryDy=0;entryPerimeter=0;" edge="1" parent="1" source="gMcA3CCZ3mcpVV-iKXvu-59" target="gMcA3CCZ3mcpVV-iKXvu-102">
          <mxGeometry relative="1" as="geometry">
            <Array as="points">
              <mxPoint x="394" y="440" />
            </Array>
          </mxGeometry>
        </mxCell>
        <mxCell id="gMcA3CCZ3mcpVV-iKXvu-54" value="est membre de" style="edgeLabel;html=1;align=center;verticalAlign=middle;resizable=0;points=[];" vertex="1" connectable="0" parent="gMcA3CCZ3mcpVV-iKXvu-53">
          <mxGeometry x="-0.1923" relative="1" as="geometry">
            <mxPoint as="offset" />
          </mxGeometry>
        </mxCell>
        <mxCell id="gMcA3CCZ3mcpVV-iKXvu-55" style="edgeStyle=orthogonalEdgeStyle;rounded=0;orthogonalLoop=1;jettySize=auto;html=1;entryX=0;entryY=0.5;entryDx=0;entryDy=0;exitX=1;exitY=0;exitDx=0;exitDy=0;exitPerimeter=0;" edge="1" parent="1" source="gMcA3CCZ3mcpVV-iKXvu-75" target="gMcA3CCZ3mcpVV-iKXvu-40">
          <mxGeometry relative="1" as="geometry" />
        </mxCell>
        <mxCell id="gMcA3CCZ3mcpVV-iKXvu-56" value="&lt;div&gt;suivre&lt;/div&gt;" style="edgeLabel;html=1;align=center;verticalAlign=middle;resizable=0;points=[];" vertex="1" connectable="0" parent="gMcA3CCZ3mcpVV-iKXvu-55">
          <mxGeometry x="0.0913" y="1" relative="1" as="geometry">
            <mxPoint as="offset" />
          </mxGeometry>
        </mxCell>
        <mxCell id="gMcA3CCZ3mcpVV-iKXvu-57" style="edgeStyle=orthogonalEdgeStyle;rounded=0;orthogonalLoop=1;jettySize=auto;html=1;entryX=0.5;entryY=0;entryDx=0;entryDy=0;" edge="1" parent="1" source="gMcA3CCZ3mcpVV-iKXvu-59" target="gMcA3CCZ3mcpVV-iKXvu-89">
          <mxGeometry relative="1" as="geometry" />
        </mxCell>
        <mxCell id="gMcA3CCZ3mcpVV-iKXvu-58" value="&lt;div&gt;participer&lt;/div&gt;&lt;div&gt;resultat&lt;br&gt;&lt;/div&gt;" style="edgeLabel;html=1;align=center;verticalAlign=middle;resizable=0;points=[];" vertex="1" connectable="0" parent="gMcA3CCZ3mcpVV-iKXvu-57">
          <mxGeometry x="0.0685" y="-3" relative="1" as="geometry">
            <mxPoint x="13" y="4" as="offset" />
          </mxGeometry>
        </mxCell>
        <mxCell id="gMcA3CCZ3mcpVV-iKXvu-59" value="Etudiant" style="shape=table;startSize=30;container=1;collapsible=1;childLayout=tableLayout;fixedRows=1;rowLines=0;fontStyle=1;align=center;resizeLast=1;" vertex="1" parent="1">
          <mxGeometry x="650" y="360" width="240" height="210" as="geometry" />
        </mxCell>
        <mxCell id="gMcA3CCZ3mcpVV-iKXvu-60" value="" style="shape=partialRectangle;collapsible=0;dropTarget=0;pointerEvents=0;fillColor=none;points=[[0,0.5],[1,0.5]];portConstraint=eastwest;top=0;left=0;right=0;bottom=1;" vertex="1" parent="gMcA3CCZ3mcpVV-iKXvu-59">
          <mxGeometry y="30" width="240" height="30" as="geometry" />
        </mxCell>
        <mxCell id="gMcA3CCZ3mcpVV-iKXvu-61" value="PK" style="shape=partialRectangle;overflow=hidden;connectable=0;fillColor=none;top=0;left=0;bottom=0;right=0;fontStyle=1;" vertex="1" parent="gMcA3CCZ3mcpVV-iKXvu-60">
          <mxGeometry width="30" height="30" as="geometry">
            <mxRectangle width="30" height="30" as="alternateBounds" />
          </mxGeometry>
        </mxCell>
        <mxCell id="gMcA3CCZ3mcpVV-iKXvu-62" value="matricule" style="shape=partialRectangle;overflow=hidden;connectable=0;fillColor=none;top=0;left=0;bottom=0;right=0;align=left;spacingLeft=6;fontStyle=5;" vertex="1" parent="gMcA3CCZ3mcpVV-iKXvu-60">
          <mxGeometry x="30" width="210" height="30" as="geometry">
            <mxRectangle width="210" height="30" as="alternateBounds" />
          </mxGeometry>
        </mxCell>
        <mxCell id="gMcA3CCZ3mcpVV-iKXvu-63" value="" style="shape=partialRectangle;collapsible=0;dropTarget=0;pointerEvents=0;fillColor=none;points=[[0,0.5],[1,0.5]];portConstraint=eastwest;top=0;left=0;right=0;bottom=0;" vertex="1" parent="gMcA3CCZ3mcpVV-iKXvu-59">
          <mxGeometry y="60" width="240" height="30" as="geometry" />
        </mxCell>
        <mxCell id="gMcA3CCZ3mcpVV-iKXvu-64" value="FK1" style="shape=partialRectangle;overflow=hidden;connectable=0;fillColor=none;top=0;left=0;bottom=0;right=0;" vertex="1" parent="gMcA3CCZ3mcpVV-iKXvu-63">
          <mxGeometry width="30" height="30" as="geometry">
            <mxRectangle width="30" height="30" as="alternateBounds" />
          </mxGeometry>
        </mxCell>
        <mxCell id="gMcA3CCZ3mcpVV-iKXvu-65" value="nome" style="shape=partialRectangle;overflow=hidden;connectable=0;fillColor=none;top=0;left=0;bottom=0;right=0;align=left;spacingLeft=6;" vertex="1" parent="gMcA3CCZ3mcpVV-iKXvu-63">
          <mxGeometry x="30" width="210" height="30" as="geometry">
            <mxRectangle width="210" height="30" as="alternateBounds" />
          </mxGeometry>
        </mxCell>
        <mxCell id="gMcA3CCZ3mcpVV-iKXvu-66" value="" style="shape=partialRectangle;collapsible=0;dropTarget=0;pointerEvents=0;fillColor=none;points=[[0,0.5],[1,0.5]];portConstraint=eastwest;top=0;left=0;right=0;bottom=0;" vertex="1" parent="gMcA3CCZ3mcpVV-iKXvu-59">
          <mxGeometry y="90" width="240" height="30" as="geometry" />
        </mxCell>
        <mxCell id="gMcA3CCZ3mcpVV-iKXvu-67" value="" style="shape=partialRectangle;overflow=hidden;connectable=0;fillColor=none;top=0;left=0;bottom=0;right=0;" vertex="1" parent="gMcA3CCZ3mcpVV-iKXvu-66">
          <mxGeometry width="30" height="30" as="geometry">
            <mxRectangle width="30" height="30" as="alternateBounds" />
          </mxGeometry>
        </mxCell>
        <mxCell id="gMcA3CCZ3mcpVV-iKXvu-68" value="datenaissance" style="shape=partialRectangle;overflow=hidden;connectable=0;fillColor=none;top=0;left=0;bottom=0;right=0;align=left;spacingLeft=6;" vertex="1" parent="gMcA3CCZ3mcpVV-iKXvu-66">
          <mxGeometry x="30" width="210" height="30" as="geometry">
            <mxRectangle width="210" height="30" as="alternateBounds" />
          </mxGeometry>
        </mxCell>
        <mxCell id="gMcA3CCZ3mcpVV-iKXvu-69" style="shape=partialRectangle;collapsible=0;dropTarget=0;pointerEvents=0;fillColor=none;points=[[0,0.5],[1,0.5]];portConstraint=eastwest;top=0;left=0;right=0;bottom=0;" vertex="1" parent="gMcA3CCZ3mcpVV-iKXvu-59">
          <mxGeometry y="120" width="240" height="30" as="geometry" />
        </mxCell>
        <mxCell id="gMcA3CCZ3mcpVV-iKXvu-70" style="shape=partialRectangle;overflow=hidden;connectable=0;fillColor=none;top=0;left=0;bottom=0;right=0;" vertex="1" parent="gMcA3CCZ3mcpVV-iKXvu-69">
          <mxGeometry width="30" height="30" as="geometry">
            <mxRectangle width="30" height="30" as="alternateBounds" />
          </mxGeometry>
        </mxCell>
        <mxCell id="gMcA3CCZ3mcpVV-iKXvu-71" value="adressem" style="shape=partialRectangle;overflow=hidden;connectable=0;fillColor=none;top=0;left=0;bottom=0;right=0;align=left;spacingLeft=6;" vertex="1" parent="gMcA3CCZ3mcpVV-iKXvu-69">
          <mxGeometry x="30" width="210" height="30" as="geometry">
            <mxRectangle width="210" height="30" as="alternateBounds" />
          </mxGeometry>
        </mxCell>
        <mxCell id="gMcA3CCZ3mcpVV-iKXvu-72" style="shape=partialRectangle;collapsible=0;dropTarget=0;pointerEvents=0;fillColor=none;points=[[0,0.5],[1,0.5]];portConstraint=eastwest;top=0;left=0;right=0;bottom=0;" vertex="1" parent="gMcA3CCZ3mcpVV-iKXvu-59">
          <mxGeometry y="150" width="240" height="30" as="geometry" />
        </mxCell>
        <mxCell id="gMcA3CCZ3mcpVV-iKXvu-73" style="shape=partialRectangle;overflow=hidden;connectable=0;fillColor=none;top=0;left=0;bottom=0;right=0;" vertex="1" parent="gMcA3CCZ3mcpVV-iKXvu-72">
          <mxGeometry width="30" height="30" as="geometry">
            <mxRectangle width="30" height="30" as="alternateBounds" />
          </mxGeometry>
        </mxCell>
        <mxCell id="gMcA3CCZ3mcpVV-iKXvu-74" value="    codepostal " style="shape=partialRectangle;overflow=hidden;connectable=0;fillColor=none;top=0;left=0;bottom=0;right=0;align=left;spacingLeft=6;" vertex="1" parent="gMcA3CCZ3mcpVV-iKXvu-72">
          <mxGeometry x="30" width="210" height="30" as="geometry">
            <mxRectangle width="210" height="30" as="alternateBounds" />
          </mxGeometry>
        </mxCell>
        <mxCell id="gMcA3CCZ3mcpVV-iKXvu-75" style="shape=partialRectangle;collapsible=0;dropTarget=0;pointerEvents=0;fillColor=none;points=[[0,0.5],[1,0.5]];portConstraint=eastwest;top=0;left=0;right=0;bottom=0;" vertex="1" parent="gMcA3CCZ3mcpVV-iKXvu-59">
          <mxGeometry y="180" width="240" height="30" as="geometry" />
        </mxCell>
        <mxCell id="gMcA3CCZ3mcpVV-iKXvu-76" style="shape=partialRectangle;overflow=hidden;connectable=0;fillColor=none;top=0;left=0;bottom=0;right=0;" vertex="1" parent="gMcA3CCZ3mcpVV-iKXvu-75">
          <mxGeometry width="30" height="30" as="geometry">
            <mxRectangle width="30" height="30" as="alternateBounds" />
          </mxGeometry>
        </mxCell>
        <mxCell id="gMcA3CCZ3mcpVV-iKXvu-77" value="    ville" style="shape=partialRectangle;overflow=hidden;connectable=0;fillColor=none;top=0;left=0;bottom=0;right=0;align=left;spacingLeft=6;" vertex="1" parent="gMcA3CCZ3mcpVV-iKXvu-75">
          <mxGeometry x="30" width="210" height="30" as="geometry">
            <mxRectangle width="210" height="30" as="alternateBounds" />
          </mxGeometry>
        </mxCell>
        <mxCell id="gMcA3CCZ3mcpVV-iKXvu-78" style="edgeStyle=orthogonalEdgeStyle;rounded=0;orthogonalLoop=1;jettySize=auto;html=1;entryX=0.104;entryY=-0.019;entryDx=0;entryDy=0;entryPerimeter=0;" edge="1" parent="1" source="gMcA3CCZ3mcpVV-iKXvu-82" target="gMcA3CCZ3mcpVV-iKXvu-36">
          <mxGeometry relative="1" as="geometry">
            <Array as="points">
              <mxPoint x="1176" y="520" />
              <mxPoint x="1176" y="520" />
            </Array>
          </mxGeometry>
        </mxCell>
        <mxCell id="gMcA3CCZ3mcpVV-iKXvu-79" value="organiser pour" style="edgeLabel;html=1;align=center;verticalAlign=middle;resizable=0;points=[];" vertex="1" connectable="0" parent="gMcA3CCZ3mcpVV-iKXvu-78">
          <mxGeometry x="0.0566" y="-1" relative="1" as="geometry">
            <mxPoint as="offset" />
          </mxGeometry>
        </mxCell>
        <mxCell id="gMcA3CCZ3mcpVV-iKXvu-80" style="edgeStyle=orthogonalEdgeStyle;rounded=0;orthogonalLoop=1;jettySize=auto;html=1;entryX=1;entryY=0.5;entryDx=0;entryDy=0;" edge="1" parent="1" source="gMcA3CCZ3mcpVV-iKXvu-82" target="gMcA3CCZ3mcpVV-iKXvu-66">
          <mxGeometry relative="1" as="geometry" />
        </mxCell>
        <mxCell id="gMcA3CCZ3mcpVV-iKXvu-81" value="&lt;div&gt;passer&lt;/div&gt;&lt;div&gt;&lt;br&gt;&lt;/div&gt;&lt;div&gt;note&lt;br&gt;&lt;/div&gt;" style="edgeLabel;html=1;align=center;verticalAlign=middle;resizable=0;points=[];" vertex="1" connectable="0" parent="gMcA3CCZ3mcpVV-iKXvu-80">
          <mxGeometry x="0.0647" y="1" relative="1" as="geometry">
            <mxPoint x="4" y="-1" as="offset" />
          </mxGeometry>
        </mxCell>
        <mxCell id="gMcA3CCZ3mcpVV-iKXvu-82" value="Examen" style="shape=table;startSize=30;container=1;collapsible=1;childLayout=tableLayout;fixedRows=1;rowLines=0;fontStyle=1;align=center;resizeLast=1;" vertex="1" parent="1">
          <mxGeometry x="1020" y="340" width="250" height="90" as="geometry" />
        </mxCell>
        <mxCell id="gMcA3CCZ3mcpVV-iKXvu-83" value="" style="shape=partialRectangle;collapsible=0;dropTarget=0;pointerEvents=0;fillColor=none;points=[[0,0.5],[1,0.5]];portConstraint=eastwest;top=0;left=0;right=0;bottom=1;" vertex="1" parent="gMcA3CCZ3mcpVV-iKXvu-82">
          <mxGeometry y="30" width="250" height="30" as="geometry" />
        </mxCell>
        <mxCell id="gMcA3CCZ3mcpVV-iKXvu-84" value="PK" style="shape=partialRectangle;overflow=hidden;connectable=0;fillColor=none;top=0;left=0;bottom=0;right=0;fontStyle=1;" vertex="1" parent="gMcA3CCZ3mcpVV-iKXvu-83">
          <mxGeometry width="30" height="30" as="geometry">
            <mxRectangle width="30" height="30" as="alternateBounds" />
          </mxGeometry>
        </mxCell>
        <mxCell id="gMcA3CCZ3mcpVV-iKXvu-85" value="idex" style="shape=partialRectangle;overflow=hidden;connectable=0;fillColor=none;top=0;left=0;bottom=0;right=0;align=left;spacingLeft=6;fontStyle=5;" vertex="1" parent="gMcA3CCZ3mcpVV-iKXvu-83">
          <mxGeometry x="30" width="220" height="30" as="geometry">
            <mxRectangle width="220" height="30" as="alternateBounds" />
          </mxGeometry>
        </mxCell>
        <mxCell id="gMcA3CCZ3mcpVV-iKXvu-86" value="" style="shape=partialRectangle;collapsible=0;dropTarget=0;pointerEvents=0;fillColor=none;points=[[0,0.5],[1,0.5]];portConstraint=eastwest;top=0;left=0;right=0;bottom=0;" vertex="1" parent="gMcA3CCZ3mcpVV-iKXvu-82">
          <mxGeometry y="60" width="250" height="30" as="geometry" />
        </mxCell>
        <mxCell id="gMcA3CCZ3mcpVV-iKXvu-87" value="FK1" style="shape=partialRectangle;overflow=hidden;connectable=0;fillColor=none;top=0;left=0;bottom=0;right=0;" vertex="1" parent="gMcA3CCZ3mcpVV-iKXvu-86">
          <mxGeometry width="30" height="30" as="geometry">
            <mxRectangle width="30" height="30" as="alternateBounds" />
          </mxGeometry>
        </mxCell>
        <mxCell id="gMcA3CCZ3mcpVV-iKXvu-88" value="date" style="shape=partialRectangle;overflow=hidden;connectable=0;fillColor=none;top=0;left=0;bottom=0;right=0;align=left;spacingLeft=6;" vertex="1" parent="gMcA3CCZ3mcpVV-iKXvu-86">
          <mxGeometry x="30" width="220" height="30" as="geometry">
            <mxRectangle width="220" height="30" as="alternateBounds" />
          </mxGeometry>
        </mxCell>
        <mxCell id="gMcA3CCZ3mcpVV-iKXvu-89" value="Projet" style="shape=table;startSize=30;container=1;collapsible=1;childLayout=tableLayout;fixedRows=1;rowLines=0;fontStyle=1;align=center;resizeLast=1;" vertex="1" parent="1">
          <mxGeometry x="420" y="648" width="250" height="150" as="geometry" />
        </mxCell>
        <mxCell id="gMcA3CCZ3mcpVV-iKXvu-90" value="" style="shape=partialRectangle;collapsible=0;dropTarget=0;pointerEvents=0;fillColor=none;points=[[0,0.5],[1,0.5]];portConstraint=eastwest;top=0;left=0;right=0;bottom=1;" vertex="1" parent="gMcA3CCZ3mcpVV-iKXvu-89">
          <mxGeometry y="30" width="250" height="30" as="geometry" />
        </mxCell>
        <mxCell id="gMcA3CCZ3mcpVV-iKXvu-91" value="PK" style="shape=partialRectangle;overflow=hidden;connectable=0;fillColor=none;top=0;left=0;bottom=0;right=0;fontStyle=1;" vertex="1" parent="gMcA3CCZ3mcpVV-iKXvu-90">
          <mxGeometry width="30" height="30" as="geometry">
            <mxRectangle width="30" height="30" as="alternateBounds" />
          </mxGeometry>
        </mxCell>
        <mxCell id="gMcA3CCZ3mcpVV-iKXvu-92" value="titre" style="shape=partialRectangle;overflow=hidden;connectable=0;fillColor=none;top=0;left=0;bottom=0;right=0;align=left;spacingLeft=6;fontStyle=5;" vertex="1" parent="gMcA3CCZ3mcpVV-iKXvu-90">
          <mxGeometry x="30" width="220" height="30" as="geometry">
            <mxRectangle width="220" height="30" as="alternateBounds" />
          </mxGeometry>
        </mxCell>
        <mxCell id="gMcA3CCZ3mcpVV-iKXvu-93" value="" style="shape=partialRectangle;collapsible=0;dropTarget=0;pointerEvents=0;fillColor=none;points=[[0,0.5],[1,0.5]];portConstraint=eastwest;top=0;left=0;right=0;bottom=0;" vertex="1" parent="gMcA3CCZ3mcpVV-iKXvu-89">
          <mxGeometry y="60" width="250" height="30" as="geometry" />
        </mxCell>
        <mxCell id="gMcA3CCZ3mcpVV-iKXvu-94" value="FK1" style="shape=partialRectangle;overflow=hidden;connectable=0;fillColor=none;top=0;left=0;bottom=0;right=0;" vertex="1" parent="gMcA3CCZ3mcpVV-iKXvu-93">
          <mxGeometry width="30" height="30" as="geometry">
            <mxRectangle width="30" height="30" as="alternateBounds" />
          </mxGeometry>
        </mxCell>
        <mxCell id="gMcA3CCZ3mcpVV-iKXvu-95" value="descriptionp" style="shape=partialRectangle;overflow=hidden;connectable=0;fillColor=none;top=0;left=0;bottom=0;right=0;align=left;spacingLeft=6;" vertex="1" parent="gMcA3CCZ3mcpVV-iKXvu-93">
          <mxGeometry x="30" width="220" height="30" as="geometry">
            <mxRectangle width="220" height="30" as="alternateBounds" />
          </mxGeometry>
        </mxCell>
        <mxCell id="gMcA3CCZ3mcpVV-iKXvu-96" value="" style="shape=partialRectangle;collapsible=0;dropTarget=0;pointerEvents=0;fillColor=none;points=[[0,0.5],[1,0.5]];portConstraint=eastwest;top=0;left=0;right=0;bottom=0;" vertex="1" parent="gMcA3CCZ3mcpVV-iKXvu-89">
          <mxGeometry y="90" width="250" height="30" as="geometry" />
        </mxCell>
        <mxCell id="gMcA3CCZ3mcpVV-iKXvu-97" value="" style="shape=partialRectangle;overflow=hidden;connectable=0;fillColor=none;top=0;left=0;bottom=0;right=0;" vertex="1" parent="gMcA3CCZ3mcpVV-iKXvu-96">
          <mxGeometry width="30" height="30" as="geometry">
            <mxRectangle width="30" height="30" as="alternateBounds" />
          </mxGeometry>
        </mxCell>
        <mxCell id="gMcA3CCZ3mcpVV-iKXvu-98" value="datedebut" style="shape=partialRectangle;overflow=hidden;connectable=0;fillColor=none;top=0;left=0;bottom=0;right=0;align=left;spacingLeft=6;" vertex="1" parent="gMcA3CCZ3mcpVV-iKXvu-96">
          <mxGeometry x="30" width="220" height="30" as="geometry">
            <mxRectangle width="220" height="30" as="alternateBounds" />
          </mxGeometry>
        </mxCell>
        <mxCell id="gMcA3CCZ3mcpVV-iKXvu-99" style="shape=partialRectangle;collapsible=0;dropTarget=0;pointerEvents=0;fillColor=none;points=[[0,0.5],[1,0.5]];portConstraint=eastwest;top=0;left=0;right=0;bottom=0;" vertex="1" parent="gMcA3CCZ3mcpVV-iKXvu-89">
          <mxGeometry y="120" width="250" height="30" as="geometry" />
        </mxCell>
        <mxCell id="gMcA3CCZ3mcpVV-iKXvu-100" style="shape=partialRectangle;overflow=hidden;connectable=0;fillColor=none;top=0;left=0;bottom=0;right=0;" vertex="1" parent="gMcA3CCZ3mcpVV-iKXvu-99">
          <mxGeometry width="30" height="30" as="geometry">
            <mxRectangle width="30" height="30" as="alternateBounds" />
          </mxGeometry>
        </mxCell>
        <mxCell id="gMcA3CCZ3mcpVV-iKXvu-101" value="datefin" style="shape=partialRectangle;overflow=hidden;connectable=0;fillColor=none;top=0;left=0;bottom=0;right=0;align=left;spacingLeft=6;" vertex="1" parent="gMcA3CCZ3mcpVV-iKXvu-99">
          <mxGeometry x="30" width="220" height="30" as="geometry">
            <mxRectangle width="220" height="30" as="alternateBounds" />
          </mxGeometry>
        </mxCell>
        <mxCell id="gMcA3CCZ3mcpVV-iKXvu-102" value="Organisationetudiante" style="shape=table;startSize=30;container=1;collapsible=1;childLayout=tableLayout;fixedRows=1;rowLines=0;fontStyle=1;align=center;resizeLast=1;" vertex="1" parent="1">
          <mxGeometry x="260" y="490" width="250" height="90" as="geometry" />
        </mxCell>
        <mxCell id="gMcA3CCZ3mcpVV-iKXvu-103" value="" style="shape=partialRectangle;collapsible=0;dropTarget=0;pointerEvents=0;fillColor=none;points=[[0,0.5],[1,0.5]];portConstraint=eastwest;top=0;left=0;right=0;bottom=1;" vertex="1" parent="gMcA3CCZ3mcpVV-iKXvu-102">
          <mxGeometry y="30" width="250" height="30" as="geometry" />
        </mxCell>
        <mxCell id="gMcA3CCZ3mcpVV-iKXvu-104" value="PK" style="shape=partialRectangle;overflow=hidden;connectable=0;fillColor=none;top=0;left=0;bottom=0;right=0;fontStyle=1;" vertex="1" parent="gMcA3CCZ3mcpVV-iKXvu-103">
          <mxGeometry width="30" height="30" as="geometry">
            <mxRectangle width="30" height="30" as="alternateBounds" />
          </mxGeometry>
        </mxCell>
        <mxCell id="gMcA3CCZ3mcpVV-iKXvu-105" value="nomo" style="shape=partialRectangle;overflow=hidden;connectable=0;fillColor=none;top=0;left=0;bottom=0;right=0;align=left;spacingLeft=6;fontStyle=5;" vertex="1" parent="gMcA3CCZ3mcpVV-iKXvu-103">
          <mxGeometry x="30" width="220" height="30" as="geometry">
            <mxRectangle width="220" height="30" as="alternateBounds" />
          </mxGeometry>
        </mxCell>
        <mxCell id="gMcA3CCZ3mcpVV-iKXvu-106" value="" style="shape=partialRectangle;collapsible=0;dropTarget=0;pointerEvents=0;fillColor=none;points=[[0,0.5],[1,0.5]];portConstraint=eastwest;top=0;left=0;right=0;bottom=0;" vertex="1" parent="gMcA3CCZ3mcpVV-iKXvu-102">
          <mxGeometry y="60" width="250" height="30" as="geometry" />
        </mxCell>
        <mxCell id="gMcA3CCZ3mcpVV-iKXvu-107" value="FK1" style="shape=partialRectangle;overflow=hidden;connectable=0;fillColor=none;top=0;left=0;bottom=0;right=0;" vertex="1" parent="gMcA3CCZ3mcpVV-iKXvu-106">
          <mxGeometry width="30" height="30" as="geometry">
            <mxRectangle width="30" height="30" as="alternateBounds" />
          </mxGeometry>
        </mxCell>
        <mxCell id="gMcA3CCZ3mcpVV-iKXvu-108" value="objectif" style="shape=partialRectangle;overflow=hidden;connectable=0;fillColor=none;top=0;left=0;bottom=0;right=0;align=left;spacingLeft=6;" vertex="1" parent="gMcA3CCZ3mcpVV-iKXvu-106">
          <mxGeometry x="30" width="220" height="30" as="geometry">
            <mxRectangle width="220" height="30" as="alternateBounds" />
          </mxGeometry>
        </mxCell>
        <mxCell id="gMcA3CCZ3mcpVV-iKXvu-109" value="1:n" style="text;html=1;align=center;verticalAlign=middle;resizable=0;points=[];autosize=1;strokeColor=none;fillColor=none;" vertex="1" parent="1">
          <mxGeometry x="840" y="288" width="40" height="30" as="geometry" />
        </mxCell>
        <mxCell id="gMcA3CCZ3mcpVV-iKXvu-110" value="1,n" style="text;html=1;align=center;verticalAlign=middle;resizable=0;points=[];autosize=1;strokeColor=none;fillColor=none;" vertex="1" parent="1">
          <mxGeometry x="1075" y="210" width="40" height="30" as="geometry" />
        </mxCell>
        <mxCell id="gMcA3CCZ3mcpVV-iKXvu-111" value="1,1" style="text;html=1;align=center;verticalAlign=middle;resizable=0;points=[];autosize=1;strokeColor=none;fillColor=none;" vertex="1" parent="1">
          <mxGeometry x="1193.57" y="210" width="40" height="30" as="geometry" />
        </mxCell>
        <mxCell id="gMcA3CCZ3mcpVV-iKXvu-112" value="1:n" style="text;html=1;align=center;verticalAlign=middle;resizable=0;points=[];autosize=1;strokeColor=none;fillColor=none;" vertex="1" parent="1">
          <mxGeometry x="1140" y="208" width="40" height="30" as="geometry" />
        </mxCell>
        <mxCell id="gMcA3CCZ3mcpVV-iKXvu-113" value="0,n" style="text;html=1;align=center;verticalAlign=middle;resizable=0;points=[];autosize=1;strokeColor=none;fillColor=none;" vertex="1" parent="1">
          <mxGeometry x="890" y="430" width="40" height="30" as="geometry" />
        </mxCell>
        <mxCell id="gMcA3CCZ3mcpVV-iKXvu-114" value="1,n" style="text;html=1;align=center;verticalAlign=middle;resizable=0;points=[];autosize=1;strokeColor=none;fillColor=none;" vertex="1" parent="1">
          <mxGeometry x="1100" y="428" width="40" height="30" as="geometry" />
        </mxCell>
        <mxCell id="gMcA3CCZ3mcpVV-iKXvu-115" value="m:n" style="text;html=1;align=center;verticalAlign=middle;resizable=0;points=[];autosize=1;strokeColor=none;fillColor=none;" vertex="1" parent="1">
          <mxGeometry x="1010" y="480" width="40" height="30" as="geometry" />
        </mxCell>
        <mxCell id="gMcA3CCZ3mcpVV-iKXvu-116" value="0,n" style="text;html=1;align=center;verticalAlign=middle;resizable=0;points=[];autosize=1;strokeColor=none;fillColor=none;" vertex="1" parent="1">
          <mxGeometry x="610" y="418" width="40" height="30" as="geometry" />
        </mxCell>
        <mxCell id="gMcA3CCZ3mcpVV-iKXvu-117" value="1,n" style="text;html=1;align=center;verticalAlign=middle;resizable=0;points=[];autosize=1;strokeColor=none;fillColor=none;" vertex="1" parent="1">
          <mxGeometry x="350" y="458" width="40" height="30" as="geometry" />
        </mxCell>
        <mxCell id="gMcA3CCZ3mcpVV-iKXvu-118" value="m:n" style="text;html=1;align=center;verticalAlign=middle;resizable=0;points=[];autosize=1;strokeColor=none;fillColor=none;" vertex="1" parent="1">
          <mxGeometry x="500" y="408" width="40" height="30" as="geometry" />
        </mxCell>
        <mxCell id="gMcA3CCZ3mcpVV-iKXvu-119" value="0,n" style="text;html=1;align=center;verticalAlign=middle;resizable=0;points=[];autosize=1;strokeColor=none;fillColor=none;" vertex="1" parent="1">
          <mxGeometry x="765" y="570" width="40" height="30" as="geometry" />
        </mxCell>
        <mxCell id="gMcA3CCZ3mcpVV-iKXvu-120" value="1,n" style="text;html=1;align=center;verticalAlign=middle;resizable=0;points=[];autosize=1;strokeColor=none;fillColor=none;" vertex="1" parent="1">
          <mxGeometry x="510" y="600" width="40" height="30" as="geometry" />
        </mxCell>
        <mxCell id="gMcA3CCZ3mcpVV-iKXvu-121" value="m:n" style="text;html=1;align=center;verticalAlign=middle;resizable=0;points=[];autosize=1;strokeColor=none;fillColor=none;" vertex="1" parent="1">
          <mxGeometry x="640" y="570" width="40" height="30" as="geometry" />
        </mxCell>
        <mxCell id="gMcA3CCZ3mcpVV-iKXvu-122" value="0,n" style="text;html=1;align=center;verticalAlign=middle;resizable=0;points=[];autosize=1;strokeColor=none;fillColor=none;" vertex="1" parent="1">
          <mxGeometry x="700" y="798" width="40" height="30" as="geometry" />
        </mxCell>
        <mxCell id="gMcA3CCZ3mcpVV-iKXvu-123" value="1,n" style="text;html=1;align=center;verticalAlign=middle;resizable=0;points=[];autosize=1;strokeColor=none;fillColor=none;" vertex="1" parent="1">
          <mxGeometry x="500" y="798" width="40" height="30" as="geometry" />
        </mxCell>
        <mxCell id="gMcA3CCZ3mcpVV-iKXvu-124" value="m:n" style="text;html=1;align=center;verticalAlign=middle;resizable=0;points=[];autosize=1;strokeColor=none;fillColor=none;" vertex="1" parent="1">
          <mxGeometry x="630" y="798" width="40" height="30" as="geometry" />
        </mxCell>
        <mxCell id="gMcA3CCZ3mcpVV-iKXvu-125" value="1,1" style="text;html=1;align=center;verticalAlign=middle;resizable=0;points=[];autosize=1;strokeColor=none;fillColor=none;" vertex="1" parent="1">
          <mxGeometry x="1175" y="428" width="40" height="30" as="geometry" />
        </mxCell>
        <mxCell id="gMcA3CCZ3mcpVV-iKXvu-126" value="0,n" style="text;html=1;align=center;verticalAlign=middle;resizable=0;points=[];autosize=1;strokeColor=none;fillColor=none;" vertex="1" parent="1">
          <mxGeometry x="1170" y="648" width="40" height="30" as="geometry" />
        </mxCell>
        <mxCell id="gMcA3CCZ3mcpVV-iKXvu-127" value="1:n" style="text;html=1;align=center;verticalAlign=middle;resizable=0;points=[];autosize=1;strokeColor=none;fillColor=none;" vertex="1" parent="1">
          <mxGeometry x="1175" y="530" width="40" height="30" as="geometry" />
        </mxCell>
        <mxCell id="gMcA3CCZ3mcpVV-iKXvu-128" value="1,n" style="text;html=1;align=center;verticalAlign=middle;resizable=0;points=[];autosize=1;strokeColor=none;fillColor=none;" vertex="1" parent="1">
          <mxGeometry x="1360" y="278" width="40" height="30" as="geometry" />
        </mxCell>
        <mxCell id="gMcA3CCZ3mcpVV-iKXvu-129" value="1,n" style="text;html=1;align=center;verticalAlign=middle;resizable=0;points=[];autosize=1;strokeColor=none;fillColor=none;" vertex="1" parent="1">
          <mxGeometry x="1360" y="648" width="40" height="30" as="geometry" />
        </mxCell>
        <mxCell id="gMcA3CCZ3mcpVV-iKXvu-130" value="m:n" style="text;html=1;align=center;verticalAlign=middle;resizable=0;points=[];autosize=1;strokeColor=none;fillColor=none;" vertex="1" parent="1">
          <mxGeometry x="1400" y="450" width="40" height="30" as="geometry" />
        </mxCell>
        <mxCell id="gMcA3CCZ3mcpVV-iKXvu-131" value="1,n" style="text;html=1;align=center;verticalAlign=middle;resizable=0;points=[];autosize=1;strokeColor=none;fillColor=none;" vertex="1" parent="1">
          <mxGeometry x="880" y="518" width="40" height="30" as="geometry" />
        </mxCell>
        <mxCell id="gMcA3CCZ3mcpVV-iKXvu-132" value="1,n" style="text;html=1;align=center;verticalAlign=middle;resizable=0;points=[];autosize=1;strokeColor=none;fillColor=none;" vertex="1" parent="1">
          <mxGeometry x="1110" y="728" width="40" height="30" as="geometry" />
        </mxCell>
        <mxCell id="gMcA3CCZ3mcpVV-iKXvu-133" value="m:n" style="text;html=1;align=center;verticalAlign=middle;resizable=0;points=[];autosize=1;strokeColor=none;fillColor=none;" vertex="1" parent="1">
          <mxGeometry x="1020" y="620" width="40" height="30" as="geometry" />
        </mxCell>
        <mxCell id="gMcA3CCZ3mcpVV-iKXvu-134" value="1,n" style="text;html=1;align=center;verticalAlign=middle;resizable=0;points=[];autosize=1;strokeColor=none;fillColor=none;" vertex="1" parent="1">
          <mxGeometry x="990" y="798" width="40" height="30" as="geometry" />
        </mxCell>
        <mxCell id="gMcA3CCZ3mcpVV-iKXvu-135" value="1,n" style="text;html=1;align=center;verticalAlign=middle;resizable=0;points=[];autosize=1;strokeColor=none;fillColor=none;" vertex="1" parent="1">
          <mxGeometry x="1100" y="798" width="40" height="30" as="geometry" />
        </mxCell>
        <mxCell id="gMcA3CCZ3mcpVV-iKXvu-136" style="edgeStyle=orthogonalEdgeStyle;rounded=0;orthogonalLoop=1;jettySize=auto;html=1;" edge="1" parent="1" source="gMcA3CCZ3mcpVV-iKXvu-138">
          <mxGeometry relative="1" as="geometry">
            <mxPoint x="1300" y="840" as="targetPoint" />
          </mxGeometry>
        </mxCell>
        <mxCell id="gMcA3CCZ3mcpVV-iKXvu-137" style="edgeStyle=orthogonalEdgeStyle;rounded=0;orthogonalLoop=1;jettySize=auto;html=1;" edge="1" parent="1" source="gMcA3CCZ3mcpVV-iKXvu-138">
          <mxGeometry relative="1" as="geometry">
            <mxPoint x="850" y="900" as="targetPoint" />
            <Array as="points">
              <mxPoint x="1030" y="970" />
              <mxPoint x="850" y="970" />
            </Array>
          </mxGeometry>
        </mxCell>
        <mxCell id="gMcA3CCZ3mcpVV-iKXvu-138" value="Professeur" style="shape=table;startSize=30;container=1;collapsible=1;childLayout=tableLayout;fixedRows=1;rowLines=0;fontStyle=1;align=center;resizeLast=1;" vertex="1" parent="1">
          <mxGeometry x="910" y="1000" width="240" height="60" as="geometry" />
        </mxCell>
        <mxCell id="gMcA3CCZ3mcpVV-iKXvu-139" value="" style="shape=partialRectangle;collapsible=0;dropTarget=0;pointerEvents=0;fillColor=none;points=[[0,0.5],[1,0.5]];portConstraint=eastwest;top=0;left=0;right=0;bottom=1;" vertex="1" parent="gMcA3CCZ3mcpVV-iKXvu-138">
          <mxGeometry y="30" width="240" height="30" as="geometry" />
        </mxCell>
        <mxCell id="gMcA3CCZ3mcpVV-iKXvu-140" value="" style="shape=partialRectangle;overflow=hidden;connectable=0;fillColor=none;top=0;left=0;bottom=0;right=0;fontStyle=1;" vertex="1" parent="gMcA3CCZ3mcpVV-iKXvu-139">
          <mxGeometry width="30" height="30" as="geometry">
            <mxRectangle width="30" height="30" as="alternateBounds" />
          </mxGeometry>
        </mxCell>
        <mxCell id="gMcA3CCZ3mcpVV-iKXvu-141" value="" style="shape=partialRectangle;overflow=hidden;connectable=0;fillColor=none;top=0;left=0;bottom=0;right=0;align=left;spacingLeft=6;fontStyle=5;" vertex="1" parent="gMcA3CCZ3mcpVV-iKXvu-139">
          <mxGeometry x="30" width="210" height="30" as="geometry">
            <mxRectangle width="210" height="30" as="alternateBounds" />
          </mxGeometry>
        </mxCell>
        <mxCell id="gMcA3CCZ3mcpVV-iKXvu-142" style="edgeStyle=orthogonalEdgeStyle;rounded=0;orthogonalLoop=1;jettySize=auto;html=1;exitX=0.451;exitY=0.003;exitDx=0;exitDy=0;exitPerimeter=0;" edge="1" parent="1" source="gMcA3CCZ3mcpVV-iKXvu-143">
          <mxGeometry relative="1" as="geometry">
            <mxPoint x="850" y="900" as="targetPoint" />
            <Array as="points">
              <mxPoint x="648" y="970" />
              <mxPoint x="850" y="970" />
            </Array>
          </mxGeometry>
        </mxCell>
        <mxCell id="gMcA3CCZ3mcpVV-iKXvu-143" value="Enseignantadjoint" style="shape=table;startSize=30;container=1;collapsible=1;childLayout=tableLayout;fixedRows=1;rowLines=0;fontStyle=1;align=center;resizeLast=1;" vertex="1" parent="1">
          <mxGeometry x="540" y="1000" width="240" height="60" as="geometry" />
        </mxCell>
        <mxCell id="gMcA3CCZ3mcpVV-iKXvu-144" value="" style="shape=partialRectangle;collapsible=0;dropTarget=0;pointerEvents=0;fillColor=none;points=[[0,0.5],[1,0.5]];portConstraint=eastwest;top=0;left=0;right=0;bottom=1;" vertex="1" parent="gMcA3CCZ3mcpVV-iKXvu-143">
          <mxGeometry y="30" width="240" height="30" as="geometry" />
        </mxCell>
        <mxCell id="gMcA3CCZ3mcpVV-iKXvu-145" value="" style="shape=partialRectangle;overflow=hidden;connectable=0;fillColor=none;top=0;left=0;bottom=0;right=0;fontStyle=1;" vertex="1" parent="gMcA3CCZ3mcpVV-iKXvu-144">
          <mxGeometry width="30" height="30" as="geometry">
            <mxRectangle width="30" height="30" as="alternateBounds" />
          </mxGeometry>
        </mxCell>
        <mxCell id="gMcA3CCZ3mcpVV-iKXvu-146" value="" style="shape=partialRectangle;overflow=hidden;connectable=0;fillColor=none;top=0;left=0;bottom=0;right=0;align=left;spacingLeft=6;fontStyle=5;" vertex="1" parent="gMcA3CCZ3mcpVV-iKXvu-144">
          <mxGeometry x="30" width="210" height="30" as="geometry">
            <mxRectangle width="210" height="30" as="alternateBounds" />
          </mxGeometry>
        </mxCell>
        <mxCell id="gMcA3CCZ3mcpVV-iKXvu-147" value="coordonner" style="text;html=1;align=center;verticalAlign=middle;resizable=0;points=[];autosize=1;strokeColor=none;fillColor=none;" vertex="1" parent="1">
          <mxGeometry x="1300" y="960" width="80" height="30" as="geometry" />
        </mxCell>
        <mxCell id="gMcA3CCZ3mcpVV-iKXvu-148" value="m:n" style="text;html=1;align=center;verticalAlign=middle;resizable=0;points=[];autosize=1;strokeColor=none;fillColor=none;" vertex="1" parent="1">
          <mxGeometry x="1050" y="798" width="40" height="30" as="geometry" />
        </mxCell>
        <mxCell id="gMcA3CCZ3mcpVV-iKXvu-149" value="1,1" style="text;html=1;align=center;verticalAlign=middle;resizable=0;points=[];autosize=1;strokeColor=none;fillColor=none;" vertex="1" parent="1">
          <mxGeometry x="1153.57" y="1010" width="40" height="30" as="geometry" />
        </mxCell>
        <mxCell id="gMcA3CCZ3mcpVV-iKXvu-150" value="1,1" style="text;html=1;align=center;verticalAlign=middle;resizable=0;points=[];autosize=1;strokeColor=none;fillColor=none;" vertex="1" parent="1">
          <mxGeometry x="1305" y="840" width="40" height="30" as="geometry" />
        </mxCell>
        <mxCell id="gMcA3CCZ3mcpVV-iKXvu-151" value="1:1" style="text;html=1;align=center;verticalAlign=middle;resizable=0;points=[];autosize=1;strokeColor=none;fillColor=none;" vertex="1" parent="1">
          <mxGeometry x="1320" y="950" width="40" height="30" as="geometry" />
        </mxCell>
        <mxCell id="gMcA3CCZ3mcpVV-iKXvu-163" value="" style="shape=or;whiteSpace=wrap;html=1;rotation=-90;" vertex="1" parent="1">
          <mxGeometry x="835" y="915" width="30" height="45" as="geometry" />
        </mxCell>
        <mxCell id="gMcA3CCZ3mcpVV-iKXvu-318" value="Programme" style="shape=table;startSize=30;container=1;collapsible=1;childLayout=tableLayout;fixedRows=1;rowLines=0;fontStyle=1;align=center;resizeLast=1;" vertex="1" parent="1">
          <mxGeometry x="2948.5699999999997" y="190" width="250" height="90" as="geometry" />
        </mxCell>
        <mxCell id="gMcA3CCZ3mcpVV-iKXvu-319" value="" style="shape=partialRectangle;collapsible=0;dropTarget=0;pointerEvents=0;fillColor=none;points=[[0,0.5],[1,0.5]];portConstraint=eastwest;top=0;left=0;right=0;bottom=1;" vertex="1" parent="gMcA3CCZ3mcpVV-iKXvu-318">
          <mxGeometry y="30" width="250" height="30" as="geometry" />
        </mxCell>
        <mxCell id="gMcA3CCZ3mcpVV-iKXvu-320" value="PK" style="shape=partialRectangle;overflow=hidden;connectable=0;fillColor=none;top=0;left=0;bottom=0;right=0;fontStyle=1;" vertex="1" parent="gMcA3CCZ3mcpVV-iKXvu-319">
          <mxGeometry width="30" height="30" as="geometry">
            <mxRectangle width="30" height="30" as="alternateBounds" />
          </mxGeometry>
        </mxCell>
        <mxCell id="gMcA3CCZ3mcpVV-iKXvu-321" value="idp" style="shape=partialRectangle;overflow=hidden;connectable=0;fillColor=none;top=0;left=0;bottom=0;right=0;align=left;spacingLeft=6;fontStyle=5;" vertex="1" parent="gMcA3CCZ3mcpVV-iKXvu-319">
          <mxGeometry x="30" width="220" height="30" as="geometry">
            <mxRectangle width="220" height="30" as="alternateBounds" />
          </mxGeometry>
        </mxCell>
        <mxCell id="gMcA3CCZ3mcpVV-iKXvu-322" value="" style="shape=partialRectangle;collapsible=0;dropTarget=0;pointerEvents=0;fillColor=none;points=[[0,0.5],[1,0.5]];portConstraint=eastwest;top=0;left=0;right=0;bottom=0;" vertex="1" parent="gMcA3CCZ3mcpVV-iKXvu-318">
          <mxGeometry y="60" width="250" height="30" as="geometry" />
        </mxCell>
        <mxCell id="gMcA3CCZ3mcpVV-iKXvu-323" value="FK1" style="shape=partialRectangle;overflow=hidden;connectable=0;fillColor=none;top=0;left=0;bottom=0;right=0;" vertex="1" parent="gMcA3CCZ3mcpVV-iKXvu-322">
          <mxGeometry width="30" height="30" as="geometry">
            <mxRectangle width="30" height="30" as="alternateBounds" />
          </mxGeometry>
        </mxCell>
        <mxCell id="gMcA3CCZ3mcpVV-iKXvu-324" value="nomp" style="shape=partialRectangle;overflow=hidden;connectable=0;fillColor=none;top=0;left=0;bottom=0;right=0;align=left;spacingLeft=6;" vertex="1" parent="gMcA3CCZ3mcpVV-iKXvu-322">
          <mxGeometry x="30" width="220" height="30" as="geometry">
            <mxRectangle width="220" height="30" as="alternateBounds" />
          </mxGeometry>
        </mxCell>
        <mxCell id="gMcA3CCZ3mcpVV-iKXvu-325" style="edgeStyle=orthogonalEdgeStyle;rounded=0;orthogonalLoop=1;jettySize=auto;html=1;entryX=0.008;entryY=0.733;entryDx=0;entryDy=0;entryPerimeter=0;" edge="1" parent="1" source="gMcA3CCZ3mcpVV-iKXvu-329" target="gMcA3CCZ3mcpVV-iKXvu-363">
          <mxGeometry relative="1" as="geometry">
            <Array as="points">
              <mxPoint x="2740" y="822" />
              <mxPoint x="2740" y="822" />
            </Array>
          </mxGeometry>
        </mxCell>
        <mxCell id="gMcA3CCZ3mcpVV-iKXvu-326" value="dispenser" style="edgeLabel;html=1;align=center;verticalAlign=middle;resizable=0;points=[];" vertex="1" connectable="0" parent="gMcA3CCZ3mcpVV-iKXvu-325">
          <mxGeometry x="-0.1046" y="1" relative="1" as="geometry">
            <mxPoint x="5" y="-11" as="offset" />
          </mxGeometry>
        </mxCell>
        <mxCell id="gMcA3CCZ3mcpVV-iKXvu-327" style="edgeStyle=orthogonalEdgeStyle;rounded=0;orthogonalLoop=1;jettySize=auto;html=1;entryX=0.477;entryY=1.071;entryDx=0;entryDy=0;entryPerimeter=0;" edge="1" parent="1" source="gMcA3CCZ3mcpVV-iKXvu-329" target="gMcA3CCZ3mcpVV-iKXvu-416">
          <mxGeometry relative="1" as="geometry">
            <Array as="points">
              <mxPoint x="2250" y="860" />
              <mxPoint x="2250" y="810" />
              <mxPoint x="2249" y="810" />
            </Array>
          </mxGeometry>
        </mxCell>
        <mxCell id="gMcA3CCZ3mcpVV-iKXvu-328" value="superviser" style="edgeLabel;html=1;align=center;verticalAlign=middle;resizable=0;points=[];" vertex="1" connectable="0" parent="gMcA3CCZ3mcpVV-iKXvu-327">
          <mxGeometry x="-0.1716" y="-1" relative="1" as="geometry">
            <mxPoint x="-2" y="-9" as="offset" />
          </mxGeometry>
        </mxCell>
        <mxCell id="gMcA3CCZ3mcpVV-iKXvu-329" value="Membrecorpsprofessoral" style="shape=table;startSize=30;container=1;collapsible=1;childLayout=tableLayout;fixedRows=1;rowLines=0;fontStyle=1;align=center;resizeLast=1;" vertex="1" parent="1">
          <mxGeometry x="2460" y="750" width="240" height="150" as="geometry" />
        </mxCell>
        <mxCell id="gMcA3CCZ3mcpVV-iKXvu-330" value="" style="shape=partialRectangle;collapsible=0;dropTarget=0;pointerEvents=0;fillColor=none;points=[[0,0.5],[1,0.5]];portConstraint=eastwest;top=0;left=0;right=0;bottom=1;" vertex="1" parent="gMcA3CCZ3mcpVV-iKXvu-329">
          <mxGeometry y="30" width="240" height="30" as="geometry" />
        </mxCell>
        <mxCell id="gMcA3CCZ3mcpVV-iKXvu-331" value="PK" style="shape=partialRectangle;overflow=hidden;connectable=0;fillColor=none;top=0;left=0;bottom=0;right=0;fontStyle=1;" vertex="1" parent="gMcA3CCZ3mcpVV-iKXvu-330">
          <mxGeometry width="30" height="30" as="geometry">
            <mxRectangle width="30" height="30" as="alternateBounds" />
          </mxGeometry>
        </mxCell>
        <mxCell id="gMcA3CCZ3mcpVV-iKXvu-332" value="idm" style="shape=partialRectangle;overflow=hidden;connectable=0;fillColor=none;top=0;left=0;bottom=0;right=0;align=left;spacingLeft=6;fontStyle=5;" vertex="1" parent="gMcA3CCZ3mcpVV-iKXvu-330">
          <mxGeometry x="30" width="210" height="30" as="geometry">
            <mxRectangle width="210" height="30" as="alternateBounds" />
          </mxGeometry>
        </mxCell>
        <mxCell id="gMcA3CCZ3mcpVV-iKXvu-333" value="" style="shape=partialRectangle;collapsible=0;dropTarget=0;pointerEvents=0;fillColor=none;points=[[0,0.5],[1,0.5]];portConstraint=eastwest;top=0;left=0;right=0;bottom=0;" vertex="1" parent="gMcA3CCZ3mcpVV-iKXvu-329">
          <mxGeometry y="60" width="240" height="30" as="geometry" />
        </mxCell>
        <mxCell id="gMcA3CCZ3mcpVV-iKXvu-334" value="FK1" style="shape=partialRectangle;overflow=hidden;connectable=0;fillColor=none;top=0;left=0;bottom=0;right=0;" vertex="1" parent="gMcA3CCZ3mcpVV-iKXvu-333">
          <mxGeometry width="30" height="30" as="geometry">
            <mxRectangle width="30" height="30" as="alternateBounds" />
          </mxGeometry>
        </mxCell>
        <mxCell id="gMcA3CCZ3mcpVV-iKXvu-335" value="nomm" style="shape=partialRectangle;overflow=hidden;connectable=0;fillColor=none;top=0;left=0;bottom=0;right=0;align=left;spacingLeft=6;" vertex="1" parent="gMcA3CCZ3mcpVV-iKXvu-333">
          <mxGeometry x="30" width="210" height="30" as="geometry">
            <mxRectangle width="210" height="30" as="alternateBounds" />
          </mxGeometry>
        </mxCell>
        <mxCell id="gMcA3CCZ3mcpVV-iKXvu-336" value="" style="shape=partialRectangle;collapsible=0;dropTarget=0;pointerEvents=0;fillColor=none;points=[[0,0.5],[1,0.5]];portConstraint=eastwest;top=0;left=0;right=0;bottom=0;" vertex="1" parent="gMcA3CCZ3mcpVV-iKXvu-329">
          <mxGeometry y="90" width="240" height="30" as="geometry" />
        </mxCell>
        <mxCell id="gMcA3CCZ3mcpVV-iKXvu-337" value="" style="shape=partialRectangle;overflow=hidden;connectable=0;fillColor=none;top=0;left=0;bottom=0;right=0;" vertex="1" parent="gMcA3CCZ3mcpVV-iKXvu-336">
          <mxGeometry width="30" height="30" as="geometry">
            <mxRectangle width="30" height="30" as="alternateBounds" />
          </mxGeometry>
        </mxCell>
        <mxCell id="gMcA3CCZ3mcpVV-iKXvu-338" value="courrielm" style="shape=partialRectangle;overflow=hidden;connectable=0;fillColor=none;top=0;left=0;bottom=0;right=0;align=left;spacingLeft=6;" vertex="1" parent="gMcA3CCZ3mcpVV-iKXvu-336">
          <mxGeometry x="30" width="210" height="30" as="geometry">
            <mxRectangle width="210" height="30" as="alternateBounds" />
          </mxGeometry>
        </mxCell>
        <mxCell id="gMcA3CCZ3mcpVV-iKXvu-339" style="shape=partialRectangle;collapsible=0;dropTarget=0;pointerEvents=0;fillColor=none;points=[[0,0.5],[1,0.5]];portConstraint=eastwest;top=0;left=0;right=0;bottom=0;" vertex="1" parent="gMcA3CCZ3mcpVV-iKXvu-329">
          <mxGeometry y="120" width="240" height="30" as="geometry" />
        </mxCell>
        <mxCell id="gMcA3CCZ3mcpVV-iKXvu-340" style="shape=partialRectangle;overflow=hidden;connectable=0;fillColor=none;top=0;left=0;bottom=0;right=0;" vertex="1" parent="gMcA3CCZ3mcpVV-iKXvu-339">
          <mxGeometry width="30" height="30" as="geometry">
            <mxRectangle width="30" height="30" as="alternateBounds" />
          </mxGeometry>
        </mxCell>
        <mxCell id="gMcA3CCZ3mcpVV-iKXvu-341" value="specialisationm" style="shape=partialRectangle;overflow=hidden;connectable=0;fillColor=none;top=0;left=0;bottom=0;right=0;align=left;spacingLeft=6;" vertex="1" parent="gMcA3CCZ3mcpVV-iKXvu-339">
          <mxGeometry x="30" width="210" height="30" as="geometry">
            <mxRectangle width="210" height="30" as="alternateBounds" />
          </mxGeometry>
        </mxCell>
        <mxCell id="gMcA3CCZ3mcpVV-iKXvu-342" style="edgeStyle=orthogonalEdgeStyle;rounded=0;orthogonalLoop=1;jettySize=auto;html=1;entryX=0;entryY=0.5;entryDx=0;entryDy=0;" edge="1" parent="1" source="gMcA3CCZ3mcpVV-iKXvu-344" target="gMcA3CCZ3mcpVV-iKXvu-319">
          <mxGeometry relative="1" as="geometry" />
        </mxCell>
        <mxCell id="gMcA3CCZ3mcpVV-iKXvu-343" value="proposer" style="edgeLabel;html=1;align=center;verticalAlign=middle;resizable=0;points=[];" vertex="1" connectable="0" parent="gMcA3CCZ3mcpVV-iKXvu-342">
          <mxGeometry x="0.2552" y="-2" relative="1" as="geometry">
            <mxPoint x="-15" y="-12" as="offset" />
          </mxGeometry>
        </mxCell>
        <mxCell id="gMcA3CCZ3mcpVV-iKXvu-344" value="Faculte" style="shape=table;startSize=30;container=1;collapsible=1;childLayout=tableLayout;fixedRows=1;rowLines=0;fontStyle=1;align=center;resizeLast=1;" vertex="1" parent="1">
          <mxGeometry x="2528.5699999999997" y="190" width="250" height="90" as="geometry" />
        </mxCell>
        <mxCell id="gMcA3CCZ3mcpVV-iKXvu-345" value="" style="shape=partialRectangle;collapsible=0;dropTarget=0;pointerEvents=0;fillColor=none;points=[[0,0.5],[1,0.5]];portConstraint=eastwest;top=0;left=0;right=0;bottom=1;" vertex="1" parent="gMcA3CCZ3mcpVV-iKXvu-344">
          <mxGeometry y="30" width="250" height="30" as="geometry" />
        </mxCell>
        <mxCell id="gMcA3CCZ3mcpVV-iKXvu-346" value="PK" style="shape=partialRectangle;overflow=hidden;connectable=0;fillColor=none;top=0;left=0;bottom=0;right=0;fontStyle=1;" vertex="1" parent="gMcA3CCZ3mcpVV-iKXvu-345">
          <mxGeometry width="30" height="30" as="geometry">
            <mxRectangle width="30" height="30" as="alternateBounds" />
          </mxGeometry>
        </mxCell>
        <mxCell id="gMcA3CCZ3mcpVV-iKXvu-347" value="identifiantf" style="shape=partialRectangle;overflow=hidden;connectable=0;fillColor=none;top=0;left=0;bottom=0;right=0;align=left;spacingLeft=6;fontStyle=5;" vertex="1" parent="gMcA3CCZ3mcpVV-iKXvu-345">
          <mxGeometry x="30" width="220" height="30" as="geometry">
            <mxRectangle width="220" height="30" as="alternateBounds" />
          </mxGeometry>
        </mxCell>
        <mxCell id="gMcA3CCZ3mcpVV-iKXvu-348" value="" style="shape=partialRectangle;collapsible=0;dropTarget=0;pointerEvents=0;fillColor=none;points=[[0,0.5],[1,0.5]];portConstraint=eastwest;top=0;left=0;right=0;bottom=0;" vertex="1" parent="gMcA3CCZ3mcpVV-iKXvu-344">
          <mxGeometry y="60" width="250" height="30" as="geometry" />
        </mxCell>
        <mxCell id="gMcA3CCZ3mcpVV-iKXvu-349" value="" style="shape=partialRectangle;overflow=hidden;connectable=0;fillColor=none;top=0;left=0;bottom=0;right=0;" vertex="1" parent="gMcA3CCZ3mcpVV-iKXvu-348">
          <mxGeometry width="30" height="30" as="geometry">
            <mxRectangle width="30" height="30" as="alternateBounds" />
          </mxGeometry>
        </mxCell>
        <mxCell id="gMcA3CCZ3mcpVV-iKXvu-350" value="nomf" style="shape=partialRectangle;overflow=hidden;connectable=0;fillColor=none;top=0;left=0;bottom=0;right=0;align=left;spacingLeft=6;" vertex="1" parent="gMcA3CCZ3mcpVV-iKXvu-348">
          <mxGeometry x="30" width="220" height="30" as="geometry">
            <mxRectangle width="220" height="30" as="alternateBounds" />
          </mxGeometry>
        </mxCell>
        <mxCell id="gMcA3CCZ3mcpVV-iKXvu-351" style="edgeStyle=orthogonalEdgeStyle;rounded=0;orthogonalLoop=1;jettySize=auto;html=1;entryX=0.45;entryY=1.053;entryDx=0;entryDy=0;entryPerimeter=0;exitX=0.843;exitY=-0.007;exitDx=0;exitDy=0;exitPerimeter=0;" edge="1" parent="1">
          <mxGeometry relative="1" as="geometry">
            <mxPoint x="3070.35" y="680" as="sourcePoint" />
            <mxPoint x="3069.6" y="281.12" as="targetPoint" />
          </mxGeometry>
        </mxCell>
        <mxCell id="gMcA3CCZ3mcpVV-iKXvu-352" value="&lt;div&gt;offrir pour&lt;br&gt;&lt;/div&gt;&lt;div&gt;&lt;br&gt;&lt;/div&gt;&lt;div&gt;semestre&lt;br&gt;&lt;/div&gt;" style="edgeLabel;html=1;align=center;verticalAlign=middle;resizable=0;points=[];" vertex="1" connectable="0" parent="gMcA3CCZ3mcpVV-iKXvu-351">
          <mxGeometry x="0.0558" relative="1" as="geometry">
            <mxPoint y="3" as="offset" />
          </mxGeometry>
        </mxCell>
        <mxCell id="gMcA3CCZ3mcpVV-iKXvu-353" value="Cours" style="shape=table;startSize=30;container=1;collapsible=1;childLayout=tableLayout;fixedRows=1;rowLines=0;fontStyle=1;align=center;resizeLast=1;" vertex="1" parent="1">
          <mxGeometry x="2860" y="680" width="250" height="160" as="geometry" />
        </mxCell>
        <mxCell id="gMcA3CCZ3mcpVV-iKXvu-354" value="" style="shape=partialRectangle;collapsible=0;dropTarget=0;pointerEvents=0;fillColor=none;points=[[0,0.5],[1,0.5]];portConstraint=eastwest;top=0;left=0;right=0;bottom=1;" vertex="1" parent="gMcA3CCZ3mcpVV-iKXvu-353">
          <mxGeometry y="30" width="250" height="30" as="geometry" />
        </mxCell>
        <mxCell id="gMcA3CCZ3mcpVV-iKXvu-355" value="PK" style="shape=partialRectangle;overflow=hidden;connectable=0;fillColor=none;top=0;left=0;bottom=0;right=0;fontStyle=1;" vertex="1" parent="gMcA3CCZ3mcpVV-iKXvu-354">
          <mxGeometry width="30" height="30" as="geometry">
            <mxRectangle width="30" height="30" as="alternateBounds" />
          </mxGeometry>
        </mxCell>
        <mxCell id="gMcA3CCZ3mcpVV-iKXvu-356" value="siglec" style="shape=partialRectangle;overflow=hidden;connectable=0;fillColor=none;top=0;left=0;bottom=0;right=0;align=left;spacingLeft=6;fontStyle=5;" vertex="1" parent="gMcA3CCZ3mcpVV-iKXvu-354">
          <mxGeometry x="30" width="220" height="30" as="geometry">
            <mxRectangle width="220" height="30" as="alternateBounds" />
          </mxGeometry>
        </mxCell>
        <mxCell id="gMcA3CCZ3mcpVV-iKXvu-357" value="" style="shape=partialRectangle;collapsible=0;dropTarget=0;pointerEvents=0;fillColor=none;points=[[0,0.5],[1,0.5]];portConstraint=eastwest;top=0;left=0;right=0;bottom=0;" vertex="1" parent="gMcA3CCZ3mcpVV-iKXvu-353">
          <mxGeometry y="60" width="250" height="30" as="geometry" />
        </mxCell>
        <mxCell id="gMcA3CCZ3mcpVV-iKXvu-358" value="FK1" style="shape=partialRectangle;overflow=hidden;connectable=0;fillColor=none;top=0;left=0;bottom=0;right=0;" vertex="1" parent="gMcA3CCZ3mcpVV-iKXvu-357">
          <mxGeometry width="30" height="30" as="geometry">
            <mxRectangle width="30" height="30" as="alternateBounds" />
          </mxGeometry>
        </mxCell>
        <mxCell id="gMcA3CCZ3mcpVV-iKXvu-359" value="titrec" style="shape=partialRectangle;overflow=hidden;connectable=0;fillColor=none;top=0;left=0;bottom=0;right=0;align=left;spacingLeft=6;" vertex="1" parent="gMcA3CCZ3mcpVV-iKXvu-357">
          <mxGeometry x="30" width="220" height="30" as="geometry">
            <mxRectangle width="220" height="30" as="alternateBounds" />
          </mxGeometry>
        </mxCell>
        <mxCell id="gMcA3CCZ3mcpVV-iKXvu-360" value="" style="shape=partialRectangle;collapsible=0;dropTarget=0;pointerEvents=0;fillColor=none;points=[[0,0.5],[1,0.5]];portConstraint=eastwest;top=0;left=0;right=0;bottom=0;" vertex="1" parent="gMcA3CCZ3mcpVV-iKXvu-353">
          <mxGeometry y="90" width="250" height="30" as="geometry" />
        </mxCell>
        <mxCell id="gMcA3CCZ3mcpVV-iKXvu-361" value="" style="shape=partialRectangle;overflow=hidden;connectable=0;fillColor=none;top=0;left=0;bottom=0;right=0;" vertex="1" parent="gMcA3CCZ3mcpVV-iKXvu-360">
          <mxGeometry width="30" height="30" as="geometry">
            <mxRectangle width="30" height="30" as="alternateBounds" />
          </mxGeometry>
        </mxCell>
        <mxCell id="gMcA3CCZ3mcpVV-iKXvu-362" value="descriptionc" style="shape=partialRectangle;overflow=hidden;connectable=0;fillColor=none;top=0;left=0;bottom=0;right=0;align=left;spacingLeft=6;" vertex="1" parent="gMcA3CCZ3mcpVV-iKXvu-360">
          <mxGeometry x="30" width="220" height="30" as="geometry">
            <mxRectangle width="220" height="30" as="alternateBounds" />
          </mxGeometry>
        </mxCell>
        <mxCell id="gMcA3CCZ3mcpVV-iKXvu-363" style="shape=partialRectangle;collapsible=0;dropTarget=0;pointerEvents=0;fillColor=none;points=[[0,0.5],[1,0.5]];portConstraint=eastwest;top=0;left=0;right=0;bottom=0;" vertex="1" parent="gMcA3CCZ3mcpVV-iKXvu-353">
          <mxGeometry y="120" width="250" height="30" as="geometry" />
        </mxCell>
        <mxCell id="gMcA3CCZ3mcpVV-iKXvu-364" style="shape=partialRectangle;overflow=hidden;connectable=0;fillColor=none;top=0;left=0;bottom=0;right=0;" vertex="1" parent="gMcA3CCZ3mcpVV-iKXvu-363">
          <mxGeometry width="30" height="30" as="geometry">
            <mxRectangle width="30" height="30" as="alternateBounds" />
          </mxGeometry>
        </mxCell>
        <mxCell id="gMcA3CCZ3mcpVV-iKXvu-365" value="numcredit" style="shape=partialRectangle;overflow=hidden;connectable=0;fillColor=none;top=0;left=0;bottom=0;right=0;align=left;spacingLeft=6;" vertex="1" parent="gMcA3CCZ3mcpVV-iKXvu-363">
          <mxGeometry x="30" width="220" height="30" as="geometry">
            <mxRectangle width="220" height="30" as="alternateBounds" />
          </mxGeometry>
        </mxCell>
        <mxCell id="gMcA3CCZ3mcpVV-iKXvu-366" style="edgeStyle=orthogonalEdgeStyle;rounded=0;orthogonalLoop=1;jettySize=auto;html=1;entryX=0.486;entryY=1;entryDx=0;entryDy=0;entryPerimeter=0;" edge="1" parent="1" source="gMcA3CCZ3mcpVV-iKXvu-376" target="gMcA3CCZ3mcpVV-iKXvu-348">
          <mxGeometry relative="1" as="geometry" />
        </mxCell>
        <mxCell id="gMcA3CCZ3mcpVV-iKXvu-367" value="&lt;div&gt;inscrire&lt;/div&gt;&lt;div&gt;dateinscription&lt;br&gt;&lt;/div&gt;" style="edgeLabel;html=1;align=center;verticalAlign=middle;resizable=0;points=[];" vertex="1" connectable="0" parent="gMcA3CCZ3mcpVV-iKXvu-366">
          <mxGeometry x="0.0264" y="-3" relative="1" as="geometry">
            <mxPoint y="-3" as="offset" />
          </mxGeometry>
        </mxCell>
        <mxCell id="gMcA3CCZ3mcpVV-iKXvu-368" value="1,n" style="edgeLabel;html=1;align=center;verticalAlign=middle;resizable=0;points=[];" vertex="1" connectable="0" parent="gMcA3CCZ3mcpVV-iKXvu-366">
          <mxGeometry x="-0.8549" y="1" relative="1" as="geometry">
            <mxPoint as="offset" />
          </mxGeometry>
        </mxCell>
        <mxCell id="gMcA3CCZ3mcpVV-iKXvu-369" value="1,1" style="edgeLabel;html=1;align=center;verticalAlign=middle;resizable=0;points=[];" vertex="1" connectable="0" parent="gMcA3CCZ3mcpVV-iKXvu-366">
          <mxGeometry x="0.8502" y="-1" relative="1" as="geometry">
            <mxPoint as="offset" />
          </mxGeometry>
        </mxCell>
        <mxCell id="gMcA3CCZ3mcpVV-iKXvu-370" style="edgeStyle=orthogonalEdgeStyle;rounded=0;orthogonalLoop=1;jettySize=auto;html=1;entryX=0.537;entryY=-0.027;entryDx=0;entryDy=0;entryPerimeter=0;" edge="1" parent="1" source="gMcA3CCZ3mcpVV-iKXvu-376" target="gMcA3CCZ3mcpVV-iKXvu-419">
          <mxGeometry relative="1" as="geometry">
            <Array as="points">
              <mxPoint x="2104" y="440" />
            </Array>
          </mxGeometry>
        </mxCell>
        <mxCell id="gMcA3CCZ3mcpVV-iKXvu-371" value="est membre de" style="edgeLabel;html=1;align=center;verticalAlign=middle;resizable=0;points=[];" vertex="1" connectable="0" parent="gMcA3CCZ3mcpVV-iKXvu-370">
          <mxGeometry x="-0.1923" relative="1" as="geometry">
            <mxPoint x="-8" y="-10" as="offset" />
          </mxGeometry>
        </mxCell>
        <mxCell id="gMcA3CCZ3mcpVV-iKXvu-372" style="edgeStyle=orthogonalEdgeStyle;rounded=0;orthogonalLoop=1;jettySize=auto;html=1;entryX=0;entryY=0.5;entryDx=0;entryDy=0;exitX=1;exitY=0;exitDx=0;exitDy=0;exitPerimeter=0;" edge="1" parent="1" source="gMcA3CCZ3mcpVV-iKXvu-392" target="gMcA3CCZ3mcpVV-iKXvu-357">
          <mxGeometry relative="1" as="geometry" />
        </mxCell>
        <mxCell id="gMcA3CCZ3mcpVV-iKXvu-373" value="&lt;div&gt;suivre&lt;/div&gt;" style="edgeLabel;html=1;align=center;verticalAlign=middle;resizable=0;points=[];" vertex="1" connectable="0" parent="gMcA3CCZ3mcpVV-iKXvu-372">
          <mxGeometry x="0.0913" y="1" relative="1" as="geometry">
            <mxPoint as="offset" />
          </mxGeometry>
        </mxCell>
        <mxCell id="gMcA3CCZ3mcpVV-iKXvu-376" value="Etudiant" style="shape=table;startSize=30;container=1;collapsible=1;childLayout=tableLayout;fixedRows=1;rowLines=0;fontStyle=1;align=center;resizeLast=1;" vertex="1" parent="1">
          <mxGeometry x="2360" y="360" width="240" height="210" as="geometry" />
        </mxCell>
        <mxCell id="gMcA3CCZ3mcpVV-iKXvu-377" value="" style="shape=partialRectangle;collapsible=0;dropTarget=0;pointerEvents=0;fillColor=none;points=[[0,0.5],[1,0.5]];portConstraint=eastwest;top=0;left=0;right=0;bottom=1;" vertex="1" parent="gMcA3CCZ3mcpVV-iKXvu-376">
          <mxGeometry y="30" width="240" height="30" as="geometry" />
        </mxCell>
        <mxCell id="gMcA3CCZ3mcpVV-iKXvu-378" value="PK" style="shape=partialRectangle;overflow=hidden;connectable=0;fillColor=none;top=0;left=0;bottom=0;right=0;fontStyle=1;" vertex="1" parent="gMcA3CCZ3mcpVV-iKXvu-377">
          <mxGeometry width="30" height="30" as="geometry">
            <mxRectangle width="30" height="30" as="alternateBounds" />
          </mxGeometry>
        </mxCell>
        <mxCell id="gMcA3CCZ3mcpVV-iKXvu-379" value="matricule" style="shape=partialRectangle;overflow=hidden;connectable=0;fillColor=none;top=0;left=0;bottom=0;right=0;align=left;spacingLeft=6;fontStyle=5;" vertex="1" parent="gMcA3CCZ3mcpVV-iKXvu-377">
          <mxGeometry x="30" width="210" height="30" as="geometry">
            <mxRectangle width="210" height="30" as="alternateBounds" />
          </mxGeometry>
        </mxCell>
        <mxCell id="gMcA3CCZ3mcpVV-iKXvu-380" value="" style="shape=partialRectangle;collapsible=0;dropTarget=0;pointerEvents=0;fillColor=none;points=[[0,0.5],[1,0.5]];portConstraint=eastwest;top=0;left=0;right=0;bottom=0;" vertex="1" parent="gMcA3CCZ3mcpVV-iKXvu-376">
          <mxGeometry y="60" width="240" height="30" as="geometry" />
        </mxCell>
        <mxCell id="gMcA3CCZ3mcpVV-iKXvu-381" value="FK1" style="shape=partialRectangle;overflow=hidden;connectable=0;fillColor=none;top=0;left=0;bottom=0;right=0;" vertex="1" parent="gMcA3CCZ3mcpVV-iKXvu-380">
          <mxGeometry width="30" height="30" as="geometry">
            <mxRectangle width="30" height="30" as="alternateBounds" />
          </mxGeometry>
        </mxCell>
        <mxCell id="gMcA3CCZ3mcpVV-iKXvu-382" value="nome" style="shape=partialRectangle;overflow=hidden;connectable=0;fillColor=none;top=0;left=0;bottom=0;right=0;align=left;spacingLeft=6;" vertex="1" parent="gMcA3CCZ3mcpVV-iKXvu-380">
          <mxGeometry x="30" width="210" height="30" as="geometry">
            <mxRectangle width="210" height="30" as="alternateBounds" />
          </mxGeometry>
        </mxCell>
        <mxCell id="gMcA3CCZ3mcpVV-iKXvu-383" value="" style="shape=partialRectangle;collapsible=0;dropTarget=0;pointerEvents=0;fillColor=none;points=[[0,0.5],[1,0.5]];portConstraint=eastwest;top=0;left=0;right=0;bottom=0;" vertex="1" parent="gMcA3CCZ3mcpVV-iKXvu-376">
          <mxGeometry y="90" width="240" height="30" as="geometry" />
        </mxCell>
        <mxCell id="gMcA3CCZ3mcpVV-iKXvu-384" value="" style="shape=partialRectangle;overflow=hidden;connectable=0;fillColor=none;top=0;left=0;bottom=0;right=0;" vertex="1" parent="gMcA3CCZ3mcpVV-iKXvu-383">
          <mxGeometry width="30" height="30" as="geometry">
            <mxRectangle width="30" height="30" as="alternateBounds" />
          </mxGeometry>
        </mxCell>
        <mxCell id="gMcA3CCZ3mcpVV-iKXvu-385" value="datenaissance" style="shape=partialRectangle;overflow=hidden;connectable=0;fillColor=none;top=0;left=0;bottom=0;right=0;align=left;spacingLeft=6;" vertex="1" parent="gMcA3CCZ3mcpVV-iKXvu-383">
          <mxGeometry x="30" width="210" height="30" as="geometry">
            <mxRectangle width="210" height="30" as="alternateBounds" />
          </mxGeometry>
        </mxCell>
        <mxCell id="gMcA3CCZ3mcpVV-iKXvu-386" style="shape=partialRectangle;collapsible=0;dropTarget=0;pointerEvents=0;fillColor=none;points=[[0,0.5],[1,0.5]];portConstraint=eastwest;top=0;left=0;right=0;bottom=0;" vertex="1" parent="gMcA3CCZ3mcpVV-iKXvu-376">
          <mxGeometry y="120" width="240" height="30" as="geometry" />
        </mxCell>
        <mxCell id="gMcA3CCZ3mcpVV-iKXvu-387" style="shape=partialRectangle;overflow=hidden;connectable=0;fillColor=none;top=0;left=0;bottom=0;right=0;" vertex="1" parent="gMcA3CCZ3mcpVV-iKXvu-386">
          <mxGeometry width="30" height="30" as="geometry">
            <mxRectangle width="30" height="30" as="alternateBounds" />
          </mxGeometry>
        </mxCell>
        <mxCell id="gMcA3CCZ3mcpVV-iKXvu-388" value="adressem" style="shape=partialRectangle;overflow=hidden;connectable=0;fillColor=none;top=0;left=0;bottom=0;right=0;align=left;spacingLeft=6;" vertex="1" parent="gMcA3CCZ3mcpVV-iKXvu-386">
          <mxGeometry x="30" width="210" height="30" as="geometry">
            <mxRectangle width="210" height="30" as="alternateBounds" />
          </mxGeometry>
        </mxCell>
        <mxCell id="gMcA3CCZ3mcpVV-iKXvu-389" style="shape=partialRectangle;collapsible=0;dropTarget=0;pointerEvents=0;fillColor=none;points=[[0,0.5],[1,0.5]];portConstraint=eastwest;top=0;left=0;right=0;bottom=0;" vertex="1" parent="gMcA3CCZ3mcpVV-iKXvu-376">
          <mxGeometry y="150" width="240" height="30" as="geometry" />
        </mxCell>
        <mxCell id="gMcA3CCZ3mcpVV-iKXvu-390" style="shape=partialRectangle;overflow=hidden;connectable=0;fillColor=none;top=0;left=0;bottom=0;right=0;" vertex="1" parent="gMcA3CCZ3mcpVV-iKXvu-389">
          <mxGeometry width="30" height="30" as="geometry">
            <mxRectangle width="30" height="30" as="alternateBounds" />
          </mxGeometry>
        </mxCell>
        <mxCell id="gMcA3CCZ3mcpVV-iKXvu-391" value="    codepostal " style="shape=partialRectangle;overflow=hidden;connectable=0;fillColor=none;top=0;left=0;bottom=0;right=0;align=left;spacingLeft=6;" vertex="1" parent="gMcA3CCZ3mcpVV-iKXvu-389">
          <mxGeometry x="30" width="210" height="30" as="geometry">
            <mxRectangle width="210" height="30" as="alternateBounds" />
          </mxGeometry>
        </mxCell>
        <mxCell id="gMcA3CCZ3mcpVV-iKXvu-392" style="shape=partialRectangle;collapsible=0;dropTarget=0;pointerEvents=0;fillColor=none;points=[[0,0.5],[1,0.5]];portConstraint=eastwest;top=0;left=0;right=0;bottom=0;" vertex="1" parent="gMcA3CCZ3mcpVV-iKXvu-376">
          <mxGeometry y="180" width="240" height="30" as="geometry" />
        </mxCell>
        <mxCell id="gMcA3CCZ3mcpVV-iKXvu-393" style="shape=partialRectangle;overflow=hidden;connectable=0;fillColor=none;top=0;left=0;bottom=0;right=0;" vertex="1" parent="gMcA3CCZ3mcpVV-iKXvu-392">
          <mxGeometry width="30" height="30" as="geometry">
            <mxRectangle width="30" height="30" as="alternateBounds" />
          </mxGeometry>
        </mxCell>
        <mxCell id="gMcA3CCZ3mcpVV-iKXvu-394" value="    ville" style="shape=partialRectangle;overflow=hidden;connectable=0;fillColor=none;top=0;left=0;bottom=0;right=0;align=left;spacingLeft=6;" vertex="1" parent="gMcA3CCZ3mcpVV-iKXvu-392">
          <mxGeometry x="30" width="210" height="30" as="geometry">
            <mxRectangle width="210" height="30" as="alternateBounds" />
          </mxGeometry>
        </mxCell>
        <mxCell id="gMcA3CCZ3mcpVV-iKXvu-395" style="edgeStyle=orthogonalEdgeStyle;rounded=0;orthogonalLoop=1;jettySize=auto;html=1;entryX=0.104;entryY=-0.019;entryDx=0;entryDy=0;entryPerimeter=0;" edge="1" parent="1" source="gMcA3CCZ3mcpVV-iKXvu-399" target="gMcA3CCZ3mcpVV-iKXvu-353">
          <mxGeometry relative="1" as="geometry">
            <Array as="points">
              <mxPoint x="2886" y="520" />
              <mxPoint x="2886" y="520" />
            </Array>
          </mxGeometry>
        </mxCell>
        <mxCell id="gMcA3CCZ3mcpVV-iKXvu-396" value="organiser pour" style="edgeLabel;html=1;align=center;verticalAlign=middle;resizable=0;points=[];rotation=-90;" vertex="1" connectable="0" parent="gMcA3CCZ3mcpVV-iKXvu-395">
          <mxGeometry x="0.0566" y="-1" relative="1" as="geometry">
            <mxPoint x="-10" y="-1" as="offset" />
          </mxGeometry>
        </mxCell>
        <mxCell id="gMcA3CCZ3mcpVV-iKXvu-399" value="Examen" style="shape=table;startSize=30;container=1;collapsible=1;childLayout=tableLayout;fixedRows=1;rowLines=0;fontStyle=1;align=center;resizeLast=1;" vertex="1" parent="1">
          <mxGeometry x="2730" y="340" width="250" height="90" as="geometry" />
        </mxCell>
        <mxCell id="gMcA3CCZ3mcpVV-iKXvu-400" value="" style="shape=partialRectangle;collapsible=0;dropTarget=0;pointerEvents=0;fillColor=none;points=[[0,0.5],[1,0.5]];portConstraint=eastwest;top=0;left=0;right=0;bottom=1;" vertex="1" parent="gMcA3CCZ3mcpVV-iKXvu-399">
          <mxGeometry y="30" width="250" height="30" as="geometry" />
        </mxCell>
        <mxCell id="gMcA3CCZ3mcpVV-iKXvu-401" value="PK" style="shape=partialRectangle;overflow=hidden;connectable=0;fillColor=none;top=0;left=0;bottom=0;right=0;fontStyle=1;" vertex="1" parent="gMcA3CCZ3mcpVV-iKXvu-400">
          <mxGeometry width="30" height="30" as="geometry">
            <mxRectangle width="30" height="30" as="alternateBounds" />
          </mxGeometry>
        </mxCell>
        <mxCell id="gMcA3CCZ3mcpVV-iKXvu-402" value="idex" style="shape=partialRectangle;overflow=hidden;connectable=0;fillColor=none;top=0;left=0;bottom=0;right=0;align=left;spacingLeft=6;fontStyle=5;" vertex="1" parent="gMcA3CCZ3mcpVV-iKXvu-400">
          <mxGeometry x="30" width="220" height="30" as="geometry">
            <mxRectangle width="220" height="30" as="alternateBounds" />
          </mxGeometry>
        </mxCell>
        <mxCell id="gMcA3CCZ3mcpVV-iKXvu-403" value="" style="shape=partialRectangle;collapsible=0;dropTarget=0;pointerEvents=0;fillColor=none;points=[[0,0.5],[1,0.5]];portConstraint=eastwest;top=0;left=0;right=0;bottom=0;" vertex="1" parent="gMcA3CCZ3mcpVV-iKXvu-399">
          <mxGeometry y="60" width="250" height="30" as="geometry" />
        </mxCell>
        <mxCell id="gMcA3CCZ3mcpVV-iKXvu-404" value="FK1" style="shape=partialRectangle;overflow=hidden;connectable=0;fillColor=none;top=0;left=0;bottom=0;right=0;" vertex="1" parent="gMcA3CCZ3mcpVV-iKXvu-403">
          <mxGeometry width="30" height="30" as="geometry">
            <mxRectangle width="30" height="30" as="alternateBounds" />
          </mxGeometry>
        </mxCell>
        <mxCell id="gMcA3CCZ3mcpVV-iKXvu-405" value="date" style="shape=partialRectangle;overflow=hidden;connectable=0;fillColor=none;top=0;left=0;bottom=0;right=0;align=left;spacingLeft=6;" vertex="1" parent="gMcA3CCZ3mcpVV-iKXvu-403">
          <mxGeometry x="30" width="220" height="30" as="geometry">
            <mxRectangle width="220" height="30" as="alternateBounds" />
          </mxGeometry>
        </mxCell>
        <mxCell id="gMcA3CCZ3mcpVV-iKXvu-406" value="Projet" style="shape=table;startSize=30;container=1;collapsible=1;childLayout=tableLayout;fixedRows=1;rowLines=0;fontStyle=1;align=center;resizeLast=1;" vertex="1" parent="1">
          <mxGeometry x="2130" y="648" width="250" height="150" as="geometry" />
        </mxCell>
        <mxCell id="gMcA3CCZ3mcpVV-iKXvu-407" value="" style="shape=partialRectangle;collapsible=0;dropTarget=0;pointerEvents=0;fillColor=none;points=[[0,0.5],[1,0.5]];portConstraint=eastwest;top=0;left=0;right=0;bottom=1;" vertex="1" parent="gMcA3CCZ3mcpVV-iKXvu-406">
          <mxGeometry y="30" width="250" height="30" as="geometry" />
        </mxCell>
        <mxCell id="gMcA3CCZ3mcpVV-iKXvu-408" value="PK" style="shape=partialRectangle;overflow=hidden;connectable=0;fillColor=none;top=0;left=0;bottom=0;right=0;fontStyle=1;" vertex="1" parent="gMcA3CCZ3mcpVV-iKXvu-407">
          <mxGeometry width="30" height="30" as="geometry">
            <mxRectangle width="30" height="30" as="alternateBounds" />
          </mxGeometry>
        </mxCell>
        <mxCell id="gMcA3CCZ3mcpVV-iKXvu-409" value="titre" style="shape=partialRectangle;overflow=hidden;connectable=0;fillColor=none;top=0;left=0;bottom=0;right=0;align=left;spacingLeft=6;fontStyle=5;" vertex="1" parent="gMcA3CCZ3mcpVV-iKXvu-407">
          <mxGeometry x="30" width="220" height="30" as="geometry">
            <mxRectangle width="220" height="30" as="alternateBounds" />
          </mxGeometry>
        </mxCell>
        <mxCell id="gMcA3CCZ3mcpVV-iKXvu-410" value="" style="shape=partialRectangle;collapsible=0;dropTarget=0;pointerEvents=0;fillColor=none;points=[[0,0.5],[1,0.5]];portConstraint=eastwest;top=0;left=0;right=0;bottom=0;" vertex="1" parent="gMcA3CCZ3mcpVV-iKXvu-406">
          <mxGeometry y="60" width="250" height="30" as="geometry" />
        </mxCell>
        <mxCell id="gMcA3CCZ3mcpVV-iKXvu-411" value="FK1" style="shape=partialRectangle;overflow=hidden;connectable=0;fillColor=none;top=0;left=0;bottom=0;right=0;" vertex="1" parent="gMcA3CCZ3mcpVV-iKXvu-410">
          <mxGeometry width="30" height="30" as="geometry">
            <mxRectangle width="30" height="30" as="alternateBounds" />
          </mxGeometry>
        </mxCell>
        <mxCell id="gMcA3CCZ3mcpVV-iKXvu-412" value="descriptionp" style="shape=partialRectangle;overflow=hidden;connectable=0;fillColor=none;top=0;left=0;bottom=0;right=0;align=left;spacingLeft=6;" vertex="1" parent="gMcA3CCZ3mcpVV-iKXvu-410">
          <mxGeometry x="30" width="220" height="30" as="geometry">
            <mxRectangle width="220" height="30" as="alternateBounds" />
          </mxGeometry>
        </mxCell>
        <mxCell id="gMcA3CCZ3mcpVV-iKXvu-413" value="" style="shape=partialRectangle;collapsible=0;dropTarget=0;pointerEvents=0;fillColor=none;points=[[0,0.5],[1,0.5]];portConstraint=eastwest;top=0;left=0;right=0;bottom=0;" vertex="1" parent="gMcA3CCZ3mcpVV-iKXvu-406">
          <mxGeometry y="90" width="250" height="30" as="geometry" />
        </mxCell>
        <mxCell id="gMcA3CCZ3mcpVV-iKXvu-414" value="" style="shape=partialRectangle;overflow=hidden;connectable=0;fillColor=none;top=0;left=0;bottom=0;right=0;" vertex="1" parent="gMcA3CCZ3mcpVV-iKXvu-413">
          <mxGeometry width="30" height="30" as="geometry">
            <mxRectangle width="30" height="30" as="alternateBounds" />
          </mxGeometry>
        </mxCell>
        <mxCell id="gMcA3CCZ3mcpVV-iKXvu-415" value="datedebut" style="shape=partialRectangle;overflow=hidden;connectable=0;fillColor=none;top=0;left=0;bottom=0;right=0;align=left;spacingLeft=6;" vertex="1" parent="gMcA3CCZ3mcpVV-iKXvu-413">
          <mxGeometry x="30" width="220" height="30" as="geometry">
            <mxRectangle width="220" height="30" as="alternateBounds" />
          </mxGeometry>
        </mxCell>
        <mxCell id="gMcA3CCZ3mcpVV-iKXvu-416" style="shape=partialRectangle;collapsible=0;dropTarget=0;pointerEvents=0;fillColor=none;points=[[0,0.5],[1,0.5]];portConstraint=eastwest;top=0;left=0;right=0;bottom=0;" vertex="1" parent="gMcA3CCZ3mcpVV-iKXvu-406">
          <mxGeometry y="120" width="250" height="30" as="geometry" />
        </mxCell>
        <mxCell id="gMcA3CCZ3mcpVV-iKXvu-417" style="shape=partialRectangle;overflow=hidden;connectable=0;fillColor=none;top=0;left=0;bottom=0;right=0;" vertex="1" parent="gMcA3CCZ3mcpVV-iKXvu-416">
          <mxGeometry width="30" height="30" as="geometry">
            <mxRectangle width="30" height="30" as="alternateBounds" />
          </mxGeometry>
        </mxCell>
        <mxCell id="gMcA3CCZ3mcpVV-iKXvu-418" value="datefin" style="shape=partialRectangle;overflow=hidden;connectable=0;fillColor=none;top=0;left=0;bottom=0;right=0;align=left;spacingLeft=6;" vertex="1" parent="gMcA3CCZ3mcpVV-iKXvu-416">
          <mxGeometry x="30" width="220" height="30" as="geometry">
            <mxRectangle width="220" height="30" as="alternateBounds" />
          </mxGeometry>
        </mxCell>
        <mxCell id="gMcA3CCZ3mcpVV-iKXvu-419" value="Organisationetudiante" style="shape=table;startSize=30;container=1;collapsible=1;childLayout=tableLayout;fixedRows=1;rowLines=0;fontStyle=1;align=center;resizeLast=1;" vertex="1" parent="1">
          <mxGeometry x="1970" y="490" width="250" height="90" as="geometry" />
        </mxCell>
        <mxCell id="gMcA3CCZ3mcpVV-iKXvu-420" value="" style="shape=partialRectangle;collapsible=0;dropTarget=0;pointerEvents=0;fillColor=none;points=[[0,0.5],[1,0.5]];portConstraint=eastwest;top=0;left=0;right=0;bottom=1;" vertex="1" parent="gMcA3CCZ3mcpVV-iKXvu-419">
          <mxGeometry y="30" width="250" height="30" as="geometry" />
        </mxCell>
        <mxCell id="gMcA3CCZ3mcpVV-iKXvu-421" value="PK" style="shape=partialRectangle;overflow=hidden;connectable=0;fillColor=none;top=0;left=0;bottom=0;right=0;fontStyle=1;" vertex="1" parent="gMcA3CCZ3mcpVV-iKXvu-420">
          <mxGeometry width="30" height="30" as="geometry">
            <mxRectangle width="30" height="30" as="alternateBounds" />
          </mxGeometry>
        </mxCell>
        <mxCell id="gMcA3CCZ3mcpVV-iKXvu-422" value="nomo" style="shape=partialRectangle;overflow=hidden;connectable=0;fillColor=none;top=0;left=0;bottom=0;right=0;align=left;spacingLeft=6;fontStyle=5;" vertex="1" parent="gMcA3CCZ3mcpVV-iKXvu-420">
          <mxGeometry x="30" width="220" height="30" as="geometry">
            <mxRectangle width="220" height="30" as="alternateBounds" />
          </mxGeometry>
        </mxCell>
        <mxCell id="gMcA3CCZ3mcpVV-iKXvu-423" value="" style="shape=partialRectangle;collapsible=0;dropTarget=0;pointerEvents=0;fillColor=none;points=[[0,0.5],[1,0.5]];portConstraint=eastwest;top=0;left=0;right=0;bottom=0;" vertex="1" parent="gMcA3CCZ3mcpVV-iKXvu-419">
          <mxGeometry y="60" width="250" height="30" as="geometry" />
        </mxCell>
        <mxCell id="gMcA3CCZ3mcpVV-iKXvu-424" value="FK1" style="shape=partialRectangle;overflow=hidden;connectable=0;fillColor=none;top=0;left=0;bottom=0;right=0;" vertex="1" parent="gMcA3CCZ3mcpVV-iKXvu-423">
          <mxGeometry width="30" height="30" as="geometry">
            <mxRectangle width="30" height="30" as="alternateBounds" />
          </mxGeometry>
        </mxCell>
        <mxCell id="gMcA3CCZ3mcpVV-iKXvu-425" value="objectif" style="shape=partialRectangle;overflow=hidden;connectable=0;fillColor=none;top=0;left=0;bottom=0;right=0;align=left;spacingLeft=6;" vertex="1" parent="gMcA3CCZ3mcpVV-iKXvu-423">
          <mxGeometry x="30" width="220" height="30" as="geometry">
            <mxRectangle width="220" height="30" as="alternateBounds" />
          </mxGeometry>
        </mxCell>
        <mxCell id="gMcA3CCZ3mcpVV-iKXvu-426" value="1:n" style="text;html=1;align=center;verticalAlign=middle;resizable=0;points=[];autosize=1;strokeColor=none;fillColor=none;" vertex="1" parent="1">
          <mxGeometry x="2550" y="278" width="40" height="30" as="geometry" />
        </mxCell>
        <mxCell id="gMcA3CCZ3mcpVV-iKXvu-427" value="1,n" style="text;html=1;align=center;verticalAlign=middle;resizable=0;points=[];autosize=1;strokeColor=none;fillColor=none;" vertex="1" parent="1">
          <mxGeometry x="2785" y="210" width="40" height="30" as="geometry" />
        </mxCell>
        <mxCell id="gMcA3CCZ3mcpVV-iKXvu-428" value="1,1" style="text;html=1;align=center;verticalAlign=middle;resizable=0;points=[];autosize=1;strokeColor=none;fillColor=none;" vertex="1" parent="1">
          <mxGeometry x="2903.5699999999997" y="210" width="40" height="30" as="geometry" />
        </mxCell>
        <mxCell id="gMcA3CCZ3mcpVV-iKXvu-429" value="1:n" style="text;html=1;align=center;verticalAlign=middle;resizable=0;points=[];autosize=1;strokeColor=none;fillColor=none;" vertex="1" parent="1">
          <mxGeometry x="2845" y="190" width="40" height="30" as="geometry" />
        </mxCell>
        <mxCell id="gMcA3CCZ3mcpVV-iKXvu-430" value="0,n" style="text;html=1;align=center;verticalAlign=middle;resizable=0;points=[];autosize=1;strokeColor=none;fillColor=none;" vertex="1" parent="1">
          <mxGeometry x="2600" y="430" width="40" height="30" as="geometry" />
        </mxCell>
        <mxCell id="gMcA3CCZ3mcpVV-iKXvu-431" value="1,n" style="text;html=1;align=center;verticalAlign=middle;resizable=0;points=[];autosize=1;strokeColor=none;fillColor=none;" vertex="1" parent="1">
          <mxGeometry x="2810" y="428" width="40" height="30" as="geometry" />
        </mxCell>
        <mxCell id="gMcA3CCZ3mcpVV-iKXvu-432" value="m:n" style="text;html=1;align=center;verticalAlign=middle;resizable=0;points=[];autosize=1;strokeColor=none;fillColor=none;" vertex="1" parent="1">
          <mxGeometry x="2720" y="424" width="40" height="30" as="geometry" />
        </mxCell>
        <mxCell id="gMcA3CCZ3mcpVV-iKXvu-433" value="0,n" style="text;html=1;align=center;verticalAlign=middle;resizable=0;points=[];autosize=1;strokeColor=none;fillColor=none;" vertex="1" parent="1">
          <mxGeometry x="2320" y="418" width="40" height="30" as="geometry" />
        </mxCell>
        <mxCell id="gMcA3CCZ3mcpVV-iKXvu-434" value="1,n" style="text;html=1;align=center;verticalAlign=middle;resizable=0;points=[];autosize=1;strokeColor=none;fillColor=none;" vertex="1" parent="1">
          <mxGeometry x="2060" y="458" width="40" height="30" as="geometry" />
        </mxCell>
        <mxCell id="gMcA3CCZ3mcpVV-iKXvu-435" value="m:n" style="text;html=1;align=center;verticalAlign=middle;resizable=0;points=[];autosize=1;strokeColor=none;fillColor=none;" vertex="1" parent="1">
          <mxGeometry x="2210" y="390" width="40" height="30" as="geometry" />
        </mxCell>
        <mxCell id="gMcA3CCZ3mcpVV-iKXvu-436" value="0,n" style="text;html=1;align=center;verticalAlign=middle;resizable=0;points=[];autosize=1;strokeColor=none;fillColor=none;" vertex="1" parent="1">
          <mxGeometry x="2475" y="570" width="40" height="30" as="geometry" />
        </mxCell>
        <mxCell id="gMcA3CCZ3mcpVV-iKXvu-437" value="1,n" style="text;html=1;align=center;verticalAlign=middle;resizable=0;points=[];autosize=1;strokeColor=none;fillColor=none;" vertex="1" parent="1">
          <mxGeometry x="2220" y="600" width="40" height="30" as="geometry" />
        </mxCell>
        <mxCell id="gMcA3CCZ3mcpVV-iKXvu-438" value="m:n" style="text;html=1;align=center;verticalAlign=middle;resizable=0;points=[];autosize=1;strokeColor=none;fillColor=none;" vertex="1" parent="1">
          <mxGeometry x="2350" y="570" width="40" height="30" as="geometry" />
        </mxCell>
        <mxCell id="gMcA3CCZ3mcpVV-iKXvu-439" value="0,n" style="text;html=1;align=center;verticalAlign=middle;resizable=0;points=[];autosize=1;strokeColor=none;fillColor=none;" vertex="1" parent="1">
          <mxGeometry x="2430" y="840" width="40" height="30" as="geometry" />
        </mxCell>
        <mxCell id="gMcA3CCZ3mcpVV-iKXvu-440" value="1,n" style="text;html=1;align=center;verticalAlign=middle;resizable=0;points=[];autosize=1;strokeColor=none;fillColor=none;" vertex="1" parent="1">
          <mxGeometry x="2210" y="798" width="40" height="30" as="geometry" />
        </mxCell>
        <mxCell id="gMcA3CCZ3mcpVV-iKXvu-441" value="m:n" style="text;html=1;align=center;verticalAlign=middle;resizable=0;points=[];autosize=1;strokeColor=none;fillColor=none;" vertex="1" parent="1">
          <mxGeometry x="2330" y="815" width="40" height="30" as="geometry" />
        </mxCell>
        <mxCell id="gMcA3CCZ3mcpVV-iKXvu-442" value="1,1" style="text;html=1;align=center;verticalAlign=middle;resizable=0;points=[];autosize=1;strokeColor=none;fillColor=none;" vertex="1" parent="1">
          <mxGeometry x="2885" y="428" width="40" height="30" as="geometry" />
        </mxCell>
        <mxCell id="gMcA3CCZ3mcpVV-iKXvu-443" value="0,n" style="text;html=1;align=center;verticalAlign=middle;resizable=0;points=[];autosize=1;strokeColor=none;fillColor=none;" vertex="1" parent="1">
          <mxGeometry x="2880" y="648" width="40" height="30" as="geometry" />
        </mxCell>
        <mxCell id="gMcA3CCZ3mcpVV-iKXvu-444" value="1:n" style="text;html=1;align=center;verticalAlign=middle;resizable=0;points=[];autosize=1;strokeColor=none;fillColor=none;" vertex="1" parent="1">
          <mxGeometry x="2835" y="511" width="40" height="30" as="geometry" />
        </mxCell>
        <mxCell id="gMcA3CCZ3mcpVV-iKXvu-445" value="1,n" style="text;html=1;align=center;verticalAlign=middle;resizable=0;points=[];autosize=1;strokeColor=none;fillColor=none;" vertex="1" parent="1">
          <mxGeometry x="3070" y="278" width="40" height="30" as="geometry" />
        </mxCell>
        <mxCell id="gMcA3CCZ3mcpVV-iKXvu-446" value="1,n" style="text;html=1;align=center;verticalAlign=middle;resizable=0;points=[];autosize=1;strokeColor=none;fillColor=none;" vertex="1" parent="1">
          <mxGeometry x="3070" y="648" width="40" height="30" as="geometry" />
        </mxCell>
        <mxCell id="gMcA3CCZ3mcpVV-iKXvu-447" value="m:n" style="text;html=1;align=center;verticalAlign=middle;resizable=0;points=[];autosize=1;strokeColor=none;fillColor=none;" vertex="1" parent="1">
          <mxGeometry x="3070" y="424" width="40" height="30" as="geometry" />
        </mxCell>
        <mxCell id="gMcA3CCZ3mcpVV-iKXvu-448" value="1,n" style="text;html=1;align=center;verticalAlign=middle;resizable=0;points=[];autosize=1;strokeColor=none;fillColor=none;" vertex="1" parent="1">
          <mxGeometry x="2590" y="518" width="40" height="30" as="geometry" />
        </mxCell>
        <mxCell id="gMcA3CCZ3mcpVV-iKXvu-449" value="1,n" style="text;html=1;align=center;verticalAlign=middle;resizable=0;points=[];autosize=1;strokeColor=none;fillColor=none;" vertex="1" parent="1">
          <mxGeometry x="2820" y="728" width="40" height="30" as="geometry" />
        </mxCell>
        <mxCell id="gMcA3CCZ3mcpVV-iKXvu-450" value="m:n" style="text;html=1;align=center;verticalAlign=middle;resizable=0;points=[];autosize=1;strokeColor=none;fillColor=none;" vertex="1" parent="1">
          <mxGeometry x="2730" y="620" width="40" height="30" as="geometry" />
        </mxCell>
        <mxCell id="gMcA3CCZ3mcpVV-iKXvu-451" value="1,n" style="text;html=1;align=center;verticalAlign=middle;resizable=0;points=[];autosize=1;strokeColor=none;fillColor=none;" vertex="1" parent="1">
          <mxGeometry x="2690" y="790" width="40" height="30" as="geometry" />
        </mxCell>
        <mxCell id="gMcA3CCZ3mcpVV-iKXvu-452" value="1,n" style="text;html=1;align=center;verticalAlign=middle;resizable=0;points=[];autosize=1;strokeColor=none;fillColor=none;" vertex="1" parent="1">
          <mxGeometry x="2823.57" y="790" width="40" height="30" as="geometry" />
        </mxCell>
        <mxCell id="gMcA3CCZ3mcpVV-iKXvu-453" style="edgeStyle=orthogonalEdgeStyle;rounded=0;orthogonalLoop=1;jettySize=auto;html=1;" edge="1" parent="1" source="gMcA3CCZ3mcpVV-iKXvu-455">
          <mxGeometry relative="1" as="geometry">
            <mxPoint x="3010" y="840" as="targetPoint" />
          </mxGeometry>
        </mxCell>
        <mxCell id="gMcA3CCZ3mcpVV-iKXvu-454" style="edgeStyle=orthogonalEdgeStyle;rounded=0;orthogonalLoop=1;jettySize=auto;html=1;" edge="1" parent="1" source="gMcA3CCZ3mcpVV-iKXvu-455">
          <mxGeometry relative="1" as="geometry">
            <mxPoint x="2560" y="900" as="targetPoint" />
            <Array as="points">
              <mxPoint x="2740" y="970" />
              <mxPoint x="2560" y="970" />
            </Array>
          </mxGeometry>
        </mxCell>
        <mxCell id="gMcA3CCZ3mcpVV-iKXvu-455" value="Professeur" style="shape=table;startSize=30;container=1;collapsible=1;childLayout=tableLayout;fixedRows=1;rowLines=0;fontStyle=1;align=center;resizeLast=1;" vertex="1" parent="1">
          <mxGeometry x="2620" y="1000" width="240" height="60" as="geometry" />
        </mxCell>
        <mxCell id="gMcA3CCZ3mcpVV-iKXvu-456" value="" style="shape=partialRectangle;collapsible=0;dropTarget=0;pointerEvents=0;fillColor=none;points=[[0,0.5],[1,0.5]];portConstraint=eastwest;top=0;left=0;right=0;bottom=1;" vertex="1" parent="gMcA3CCZ3mcpVV-iKXvu-455">
          <mxGeometry y="30" width="240" height="30" as="geometry" />
        </mxCell>
        <mxCell id="gMcA3CCZ3mcpVV-iKXvu-457" value="" style="shape=partialRectangle;overflow=hidden;connectable=0;fillColor=none;top=0;left=0;bottom=0;right=0;fontStyle=1;" vertex="1" parent="gMcA3CCZ3mcpVV-iKXvu-456">
          <mxGeometry width="30" height="30" as="geometry">
            <mxRectangle width="30" height="30" as="alternateBounds" />
          </mxGeometry>
        </mxCell>
        <mxCell id="gMcA3CCZ3mcpVV-iKXvu-458" value="" style="shape=partialRectangle;overflow=hidden;connectable=0;fillColor=none;top=0;left=0;bottom=0;right=0;align=left;spacingLeft=6;fontStyle=5;" vertex="1" parent="gMcA3CCZ3mcpVV-iKXvu-456">
          <mxGeometry x="30" width="210" height="30" as="geometry">
            <mxRectangle width="210" height="30" as="alternateBounds" />
          </mxGeometry>
        </mxCell>
        <mxCell id="gMcA3CCZ3mcpVV-iKXvu-459" style="edgeStyle=orthogonalEdgeStyle;rounded=0;orthogonalLoop=1;jettySize=auto;html=1;exitX=0.451;exitY=0.003;exitDx=0;exitDy=0;exitPerimeter=0;" edge="1" parent="1" source="gMcA3CCZ3mcpVV-iKXvu-460">
          <mxGeometry relative="1" as="geometry">
            <mxPoint x="2560" y="900" as="targetPoint" />
            <Array as="points">
              <mxPoint x="2358" y="970" />
              <mxPoint x="2560" y="970" />
            </Array>
          </mxGeometry>
        </mxCell>
        <mxCell id="gMcA3CCZ3mcpVV-iKXvu-460" value="Enseignantadjoint" style="shape=table;startSize=30;container=1;collapsible=1;childLayout=tableLayout;fixedRows=1;rowLines=0;fontStyle=1;align=center;resizeLast=1;" vertex="1" parent="1">
          <mxGeometry x="2250" y="1000" width="240" height="60" as="geometry" />
        </mxCell>
        <mxCell id="gMcA3CCZ3mcpVV-iKXvu-461" value="" style="shape=partialRectangle;collapsible=0;dropTarget=0;pointerEvents=0;fillColor=none;points=[[0,0.5],[1,0.5]];portConstraint=eastwest;top=0;left=0;right=0;bottom=1;" vertex="1" parent="gMcA3CCZ3mcpVV-iKXvu-460">
          <mxGeometry y="30" width="240" height="30" as="geometry" />
        </mxCell>
        <mxCell id="gMcA3CCZ3mcpVV-iKXvu-462" value="" style="shape=partialRectangle;overflow=hidden;connectable=0;fillColor=none;top=0;left=0;bottom=0;right=0;fontStyle=1;" vertex="1" parent="gMcA3CCZ3mcpVV-iKXvu-461">
          <mxGeometry width="30" height="30" as="geometry">
            <mxRectangle width="30" height="30" as="alternateBounds" />
          </mxGeometry>
        </mxCell>
        <mxCell id="gMcA3CCZ3mcpVV-iKXvu-463" value="" style="shape=partialRectangle;overflow=hidden;connectable=0;fillColor=none;top=0;left=0;bottom=0;right=0;align=left;spacingLeft=6;fontStyle=5;" vertex="1" parent="gMcA3CCZ3mcpVV-iKXvu-461">
          <mxGeometry x="30" width="210" height="30" as="geometry">
            <mxRectangle width="210" height="30" as="alternateBounds" />
          </mxGeometry>
        </mxCell>
        <mxCell id="gMcA3CCZ3mcpVV-iKXvu-464" value="coordonner" style="text;html=1;align=center;verticalAlign=middle;resizable=0;points=[];autosize=1;strokeColor=none;fillColor=none;rotation=-90;" vertex="1" parent="1">
          <mxGeometry x="2960" y="942" width="80" height="30" as="geometry" />
        </mxCell>
        <mxCell id="gMcA3CCZ3mcpVV-iKXvu-465" value="m:n" style="text;html=1;align=center;verticalAlign=middle;resizable=0;points=[];autosize=1;strokeColor=none;fillColor=none;" vertex="1" parent="1">
          <mxGeometry x="2760" y="768" width="40" height="30" as="geometry" />
        </mxCell>
        <mxCell id="gMcA3CCZ3mcpVV-iKXvu-466" value="1,1" style="text;html=1;align=center;verticalAlign=middle;resizable=0;points=[];autosize=1;strokeColor=none;fillColor=none;" vertex="1" parent="1">
          <mxGeometry x="2863.5699999999997" y="1010" width="40" height="30" as="geometry" />
        </mxCell>
        <mxCell id="gMcA3CCZ3mcpVV-iKXvu-467" value="1,1" style="text;html=1;align=center;verticalAlign=middle;resizable=0;points=[];autosize=1;strokeColor=none;fillColor=none;" vertex="1" parent="1">
          <mxGeometry x="3015" y="840" width="40" height="30" as="geometry" />
        </mxCell>
        <mxCell id="gMcA3CCZ3mcpVV-iKXvu-468" value="1:1" style="text;html=1;align=center;verticalAlign=middle;resizable=0;points=[];autosize=1;strokeColor=none;fillColor=none;" vertex="1" parent="1">
          <mxGeometry x="2948.57" y="922.5" width="40" height="30" as="geometry" />
        </mxCell>
        <mxCell id="gMcA3CCZ3mcpVV-iKXvu-469" value="" style="shape=or;whiteSpace=wrap;html=1;rotation=-90;" vertex="1" parent="1">
          <mxGeometry x="2545" y="915" width="30" height="45" as="geometry" />
        </mxCell>
        <mxCell id="gMcA3CCZ3mcpVV-iKXvu-470" value="UML" style="text;html=1;align=center;verticalAlign=middle;resizable=0;points=[];autosize=1;strokeColor=none;fillColor=none;" vertex="1" parent="1">
          <mxGeometry x="1005" y="48" width="50" height="30" as="geometry" />
        </mxCell>
        <mxCell id="gMcA3CCZ3mcpVV-iKXvu-471" value="MERISE" style="text;html=1;align=center;verticalAlign=middle;resizable=0;points=[];autosize=1;strokeColor=none;fillColor=none;" vertex="1" parent="1">
          <mxGeometry x="2635" y="38" width="70" height="30" as="geometry" />
        </mxCell>
        <mxCell id="gMcA3CCZ3mcpVV-iKXvu-476" value="" style="endArrow=none;html=1;rounded=0;" edge="1" parent="1">
          <mxGeometry width="50" height="50" relative="1" as="geometry">
            <mxPoint x="2530" y="320" as="sourcePoint" />
            <mxPoint x="2610" y="320" as="targetPoint" />
          </mxGeometry>
        </mxCell>
        <mxCell id="gMcA3CCZ3mcpVV-iKXvu-374" style="edgeStyle=orthogonalEdgeStyle;rounded=0;orthogonalLoop=1;jettySize=auto;html=1;entryX=0.5;entryY=0;entryDx=0;entryDy=0;" edge="1" parent="1" source="gMcA3CCZ3mcpVV-iKXvu-376" target="gMcA3CCZ3mcpVV-iKXvu-406">
          <mxGeometry relative="1" as="geometry" />
        </mxCell>
        <mxCell id="gMcA3CCZ3mcpVV-iKXvu-375" value="&lt;div&gt;participer&lt;/div&gt;&lt;div&gt;resultat&lt;br&gt;&lt;/div&gt;" style="edgeLabel;html=1;align=center;verticalAlign=middle;resizable=0;points=[];" vertex="1" connectable="0" parent="gMcA3CCZ3mcpVV-iKXvu-374">
          <mxGeometry x="0.0685" y="-3" relative="1" as="geometry">
            <mxPoint x="13" y="4" as="offset" />
          </mxGeometry>
        </mxCell>
        <mxCell id="gMcA3CCZ3mcpVV-iKXvu-484" value="" style="endArrow=none;html=1;rounded=0;" edge="1" parent="1">
          <mxGeometry width="50" height="50" relative="1" as="geometry">
            <mxPoint x="2340" y="609" as="sourcePoint" />
            <mxPoint x="2400" y="609" as="targetPoint" />
          </mxGeometry>
        </mxCell>
        <mxCell id="gMcA3CCZ3mcpVV-iKXvu-397" style="edgeStyle=orthogonalEdgeStyle;rounded=0;orthogonalLoop=1;jettySize=auto;html=1;entryX=1;entryY=0.5;entryDx=0;entryDy=0;" edge="1" parent="1" source="gMcA3CCZ3mcpVV-iKXvu-399" target="gMcA3CCZ3mcpVV-iKXvu-383">
          <mxGeometry relative="1" as="geometry" />
        </mxCell>
        <mxCell id="gMcA3CCZ3mcpVV-iKXvu-398" value="&lt;div&gt;passer&lt;/div&gt;&lt;div&gt;&lt;br&gt;&lt;/div&gt;&lt;div&gt;note&lt;br&gt;&lt;/div&gt;" style="edgeLabel;html=1;align=center;verticalAlign=middle;resizable=0;points=[];" vertex="1" connectable="0" parent="gMcA3CCZ3mcpVV-iKXvu-397">
          <mxGeometry x="0.0647" y="1" relative="1" as="geometry">
            <mxPoint x="4" y="-1" as="offset" />
          </mxGeometry>
        </mxCell>
        <mxCell id="gMcA3CCZ3mcpVV-iKXvu-489" value="" style="endArrow=none;html=1;rounded=0;" edge="1" parent="1">
          <mxGeometry width="50" height="50" relative="1" as="geometry">
            <mxPoint x="2720" y="465" as="sourcePoint" />
            <mxPoint x="2760" y="465" as="targetPoint" />
          </mxGeometry>
        </mxCell>
        <mxCell id="gMcA3CCZ3mcpVV-iKXvu-494" value="" style="endArrow=none;html=1;rounded=0;exitX=0;exitY=0.5;exitDx=0;exitDy=0;entryX=1;entryY=0.5;entryDx=0;entryDy=0;" edge="1" parent="1" source="gMcA3CCZ3mcpVV-iKXvu-493" target="gMcA3CCZ3mcpVV-iKXvu-493">
          <mxGeometry width="50" height="50" relative="1" as="geometry">
            <mxPoint x="3030" y="471" as="sourcePoint" />
            <mxPoint x="3110" y="471" as="targetPoint" />
          </mxGeometry>
        </mxCell>
        <mxCell id="gMcA3CCZ3mcpVV-iKXvu-500" value="" style="endArrow=none;html=1;rounded=0;" edge="1" parent="1">
          <mxGeometry width="50" height="50" relative="1" as="geometry">
            <mxPoint x="2600" y="390" as="sourcePoint" />
            <mxPoint x="2680" y="390" as="targetPoint" />
          </mxGeometry>
        </mxCell>
        <mxCell id="gMcA3CCZ3mcpVV-iKXvu-505" value="" style="endArrow=none;html=1;rounded=0;exitX=0;exitY=0.5;exitDx=0;exitDy=0;entryX=1;entryY=0.5;entryDx=0;entryDy=0;" edge="1" parent="1" source="gMcA3CCZ3mcpVV-iKXvu-485" target="gMcA3CCZ3mcpVV-iKXvu-485">
          <mxGeometry width="50" height="50" relative="1" as="geometry">
            <mxPoint x="2890" y="610" as="sourcePoint" />
            <mxPoint x="2940" y="560" as="targetPoint" />
          </mxGeometry>
        </mxCell>
      </root>
    </mxGraphModel>
  </diagram>
</mxfile>
